<svg xmlns="http://www.w3.org/2000/svg" xmlns:xlink="http://www.w3.org/1999/xlink" viewBox="0 0 27.56 27.56"><defs><style>.cls-1{fill:url(#linear-gradient);}.cls-2{fill:#fff;fill-rule:evenodd;}.cls-3{opacity:0.2;}.cls-4{opacity:0.4;}</style><linearGradient id="linear-gradient" y1="13.78" x2="27.56" y2="13.78" gradientUnits="userSpaceOnUse"><stop offset="0" stop-color="#eb5b1f"/><stop offset="1" stop-color="#f7931e"/></linearGradient></defs><title>Asset 181</title><g id="Layer_2" data-name="Layer 2"><g id="Layer_1-2" data-name="Layer 1"><rect class="cls-1" width="27.56" height="27.56" rx="5.67"/><path class="cls-2" d="M17.46,4.14v0A4.7,4.7,0,0,0,22,9v3.27a7.78,7.78,0,0,1-4.55-1.6V17c0,2.88-1.57,5.72-4.58,6.29A6.51,6.51,0,0,1,10,23.2C2.65,21,5.09,10.11,12.46,11.27v3.52c-3-.45-4.06,2.09-3.25,3.9A2.71,2.71,0,0,0,14,18.37a6.19,6.19,0,0,0,.18-1.56V4.14Z"/><g class="cls-3"><path class="cls-2" d="M16.7,3.67h0a4.69,4.69,0,0,0,4.54,4.8v3.28a7.79,7.79,0,0,1-4.54-1.61v6.38c0,2.89-1.57,5.73-4.58,6.3a6.62,6.62,0,0,1-2.87-.1c-7.35-2.2-4.91-13.1,2.47-11.93v3.52c-3.05-.45-4.07,2.08-3.26,3.9a2.71,2.71,0,0,0,4.83-.32,6.19,6.19,0,0,0,.18-1.56V3.67Z"/></g><g class="cls-4"><path class="cls-2" d="M18.17,4.61v0c0,.29.09,4.53,4.54,4.8v3.28a7.79,7.79,0,0,1-4.54-1.61v6.38c0,2.89-1.56,5.72-4.57,6.29a6.51,6.51,0,0,1-2.88-.1c-7.35-2.2-4.91-13.09,2.47-11.92v3.51c-3-.45-4.07,2.09-3.26,3.9a2.71,2.71,0,0,0,4.83-.32,6.08,6.08,0,0,0,.18-1.56V4.61Z"/></g></g></g></svg>