<svg xmlns="http://www.w3.org/2000/svg" xmlns:xlink="http://www.w3.org/1999/xlink" viewBox="0 0 27.56 27.56"><defs><style>.cls-1{fill:url(#linear-gradient);}.cls-2{fill:#fcfdfe;}</style><linearGradient id="linear-gradient" y1="13.78" x2="27.56" y2="13.78" gradientUnits="userSpaceOnUse"><stop offset="0" stop-color="#eb5b1f"/><stop offset="1" stop-color="#f7931e"/></linearGradient></defs><title>Asset 151</title><g id="Layer_2" data-name="Layer 2"><g id="Layer_1-2" data-name="Layer 1"><rect class="cls-1" width="27.56" height="27.56" rx="5.67"/><path class="cls-2" d="M5.81,18.74a6.92,6.92,0,0,0,4.68-1.37A3.61,3.61,0,0,1,7.43,15a4.9,4.9,0,0,0,1.25-.12,3.49,3.49,0,0,1-2.43-3.26c.45,0,.8.34,1.35.3A3.52,3.52,0,0,1,6.7,7.5a9.77,9.77,0,0,0,5,3.2l.32.09a6.47,6.47,0,0,0,1.44.33c.53-.07,0-.68.13-1.49a3.28,3.28,0,0,1,5.21-2.16,1.48,1.48,0,0,0,1.65.16c.3-.14.61-.27,1-.42-.09.71-.63,1.1-1.07,1.63a2.43,2.43,0,0,0,1.36-.17,2.36,2.36,0,0,1-.89,1.09,1.25,1.25,0,0,0-.52,1.06c-.23,7.2-8.4,12.77-14,8.34Z"/></g></g></svg>