<svg xmlns="http://www.w3.org/2000/svg" xmlns:xlink="http://www.w3.org/1999/xlink" viewBox="0 0 27.56 27.56"><defs><style>.cls-1{fill:url(#linear-gradient);}.cls-2{fill:#fff;}</style><linearGradient id="linear-gradient" y1="13.78" x2="27.56" y2="13.78" gradientUnits="userSpaceOnUse"><stop offset="0" stop-color="#eb5b1f"/><stop offset="1" stop-color="#f7931e"/></linearGradient></defs><title>Asset 141</title><g id="Layer_2" data-name="Layer 2"><g id="Layer_1-2" data-name="Layer 1"><rect class="cls-1" width="27.56" height="27.56" rx="5.67"/><path class="cls-2" d="M19.8,22.82h-12a3,3,0,0,1-3-3v-12a3,3,0,0,1,3-3h12a3,3,0,0,1,3,3v12A3,3,0,0,1,19.8,22.82Zm-12-17.1a2,2,0,0,0-2,2v12a2,2,0,0,0,2,2h12a2,2,0,0,0,2-2v-12a2,2,0,0,0-2-2Z"/><path class="cls-2" d="M13.78,18.42a4.64,4.64,0,1,1,3.28-1.36A4.58,4.58,0,0,1,13.78,18.42Zm0-8.29a3.65,3.65,0,1,0,3.65,3.65A3.64,3.64,0,0,0,13.78,10.13Z"/><circle class="cls-2" cx="19.54" cy="7.25" r="0.89"/></g></g></svg>