<svg xmlns="http://www.w3.org/2000/svg" xmlns:xlink="http://www.w3.org/1999/xlink" viewBox="0 0 27.56 27.56"><defs><style>.cls-1{fill:url(#linear-gradient);}.cls-2{fill:#fff;}</style><linearGradient id="linear-gradient" y1="13.78" x2="27.56" y2="13.78" gradientUnits="userSpaceOnUse"><stop offset="0" stop-color="#eb5b1f"/><stop offset="1" stop-color="#f7931e"/></linearGradient></defs><title>Asset 171</title><g id="Layer_2" data-name="Layer 2"><g id="Layer_1-2" data-name="Layer 1"><rect class="cls-1" width="27.56" height="27.56" rx="5.67"/><path class="cls-2" d="M8.3,9.78A5.48,5.48,0,0,1,9.51,5.6a5.91,5.91,0,0,1,6.37-1.47A5,5,0,0,1,19.22,9c0,.71,0,1.42,0,2.12s.18.67.66.46c.3-.12.6-.23.91-.32s.89-.14,1.15.35-.07.8-.38,1.05a6.87,6.87,0,0,1-1.31.89c-.86.43-.86,1-.51,1.82A7.67,7.67,0,0,0,23.2,19c.24.13.66.15.64.51s-.43.44-.71.56a11.28,11.28,0,0,1-1.16.39c-.42.14-.81.29-.85.85s-.39.62-.82.61a7.53,7.53,0,0,0-4.13,1.23,4.7,4.7,0,0,1-5-.09,6.78,6.78,0,0,0-3.8-1.14c-.52,0-.92-.09-1-.73s-.66-.68-1.11-.82-1.43-.26-1.54-.82.79-.62,1.23-.92a7.64,7.64,0,0,0,2.83-3.16c.46-1,.38-1.27-.53-1.88a14.33,14.33,0,0,1-1.3-.9c-.32-.26-.6-.6-.34-1.06s.66-.41,1.09-.34,1.15.77,1.54.25C8.53,11.13,8.3,10.37,8.3,9.78Z"/></g></g></svg>