<svg xmlns="http://www.w3.org/2000/svg" viewBox="0 0 80.33 73.63"><defs><style>.cls-1,.cls-2{fill:none;stroke:#fff;stroke-miterlimit:2.61;stroke-width:1.2px;}.cls-1{fill-rule:evenodd;}</style></defs><title>Asset 211</title><g id="Layer_2" data-name="Layer 2"><g id="Layer_1-2" data-name="Layer 1"><path class="cls-1" d="M57.25,73.26l-.72-4.91C56.28,65.21,51.33,64.2,50,64c-1.44,1.58-5.71,1.57-7.2,0-1.48.26-6.23,1.27-6.47,4.36l-.73,4.91m17.85.33-.28-4.5m-13.46,0-.29,4.5M43.2,50.75c2.44,1.57,7.86,1.38,7.9,2.22l.34,1a1.64,1.64,0,0,1,1.46,1.28,3,3,0,0,1-1.35,2.62,5.17,5.17,0,0,1-10.22,0A3,3,0,0,1,40,55.26,1.62,1.62,0,0,1,41.44,54a3.43,3.43,0,0,1,1.76-3.24Zm.52,10.86c-2.5-.1-6-.53-6.28-6-.52-5.93,2.47-11.32,9.44-10,6.4-1,9.14,4.77,8.53,10.11-.47,4.07-2.6,6-6.36,6M7.34,43.49,7,52.93M14.54,32.8l3.95,4.9,2.94-4.13M.6,52.93,1.81,42.44c.91-7.89,6.07-7.62,12.67-9.61l1.91-2,5,2.77H25l5-2.77,1.9,2c4.23,1.28,7.87,1.63,10.18,3.79M31.92,32.8l-4,4.9L25,33.57m-12.35-18c-3.31-.38-3.23,4.89.26,5.61a11.13,11.13,0,0,0,8.41,8.61,10.79,10.79,0,0,0,3.76,0,11.15,11.15,0,0,0,8.41-8.61c3.48-.72,3.57-6,.26-5.61m-.77.74C33.64,7.55,17.23,19,16.3,9.62l0,0c-2.56,1.32-3.21,3.34-2.66,6.57m.59,1.41c0-.21-.53-2.08-2-2.13C10.42,9.57,12,3,17.07,2.92c6.18-5.93,21.29,0,17.22,12.3a3.21,3.21,0,0,0-2,2.8m30.19,2.86c3,.3,1.87,5.61-.3,6a15.49,15.49,0,0,1-.73,3,11.15,11.15,0,0,1-7,5.87,8.48,8.48,0,0,1-3.33,0,11.13,11.13,0,0,1-7-5.87,14.53,14.53,0,0,1-.73-3c-2.17-.36-3.34-5.67-.3-6,.71-7.48,2.69.54,10.2-1a10.26,10.26,0,0,0,5.91-4.7c.11-.28,3.25,1,3.31,5.72Zm1.29.65c2.77-7.24-2.17-14.3-7.19-13C50,4.93,38.25,9.76,41.19,23.54M64,25c-.75,1.44.21,2,.86,2.75A7.76,7.76,0,0,1,67,34.55c-.3,1.48-1.16,3.09-2,6-1.49,5.18.52,4.82,2,4.78h0c-1.63,2-5.11,1.65-6.47-2.47M61.87,29c1.15,2.43.28,4.35-1.29,6-3,3.22-4.12,7.11-.59,10.88M33,57.06l1.19-10.62c.43-3.38,2.77-5.47,5.68-6.77a23.24,23.24,0,0,1,5.33-1.55,9.49,9.49,0,0,0,10.9,3.05M28.18,64.6,28.49,69M15.8,69l.31-4.39m-3.65,4,.65-4.71c.22-2.81,4.66-3.37,5.83-3.56,1.3,1.42,5.13,1.4,6.47,0,1.33.23,5.59.8,5.8,3.56l.65,4.71M17,54c1.61,5.93,9.08,5.5,10.28,0a2.43,2.43,0,0,0,1.84-2.11c0-1-.67-1.83-1.55-1.7a19.75,19.75,0,0,1-.67-2c-.16-.32-.33-.29-.61-.17a51.41,51.41,0,0,1-9.64,2.13,1.6,1.6,0,0,0-1.36,1.71A2.37,2.37,0,0,0,17,54Zm-1.52-3.19c-.92-2.74-1.22-6.49,2-8.34,2-1.14,5.79-1.64,7.79-.25,4.33.55,4.67,5.66,3.39,8.82"/><line class="cls-2" x1="76.06" y1="64.6" x2="76.37" y2="68.99"/><line class="cls-2" x1="63.68" y1="68.99" x2="63.99" y2="64.6"/><path class="cls-1" d="M60.34,68.64,61,63.93c.22-2.81,4.66-3.37,5.83-3.56,1.3,1.42,5.13,1.4,6.47,0,1.33.23,5.59.8,5.8,3.56l.65,4.71"/><path class="cls-1" d="M64.84,54c1.61,5.93,9.08,5.5,10.28,0A2.43,2.43,0,0,0,77,51.9c0-1-.67-1.83-1.54-1.7a17.49,17.49,0,0,1-.68-2c-.16-.32-.32-.29-.61-.17a51.41,51.41,0,0,1-9.64,2.13,1.6,1.6,0,0,0-1.36,1.71A2.37,2.37,0,0,0,64.84,54Z"/><path class="cls-1" d="M63.32,50.77c-.91-2.74-1.22-6.49,2-8.34,2-1.14,5.79-1.64,7.79-.25,4.33.55,4.67,5.66,3.39,8.82"/></g></g></svg>