<svg xmlns="http://www.w3.org/2000/svg" viewBox="0 0 129.01 183.42"><defs><style>.cls-1{fill:none;stroke:#3a1a32;stroke-miterlimit:10;}</style></defs><title>Asset 201</title><g id="Layer_2" data-name="Layer 2"><g id="Layer_1-2" data-name="Layer 1"><path class="cls-1" d="M85.64,94.11c-13.93,0-25.4-3-34.19-9-8.25-5.31-12.1-11.74-12.1-20.22,0-8.17,3.23-14.57,9.76-19.11,6.85-5.38,15.94-8.1,27-8.1A81.16,81.16,0,0,1,88.16,38.8l4.33.66V1.79L89.1,1.44C83.05.83,78.1.5,74.78.5c-22.25,0-40.38,6-53.87,17.74C7.56,29.84.5,45.86.5,64.59c0,27.66,14.48,47.24,43.09,58.3a184.39,184.39,0,0,0-16,11.63c-9.48,7.79-16.76,14.1-22.27,19.28L2.5,156.45l25.87,26.3L31,180.58C44.41,169.7,55.19,161,62.16,156a194.7,194.7,0,0,1,26.25-16.2,190.46,190.46,0,0,1,40.1-15.66V86l-1.31.35c-20.46,5.39-33.28,7.79-41.56,7.79"/></g></g></svg>