<svg xmlns="http://www.w3.org/2000/svg" viewBox="0 0 86.14 19.14"><defs><style>.cls-1{fill:#676058;}</style></defs><title>Asset 81</title><g id="Layer_2" data-name="Layer 2"><g id="Layer_1-2" data-name="Layer 1"><path class="cls-1" d="M5.7,2.52a1.24,1.24,0,0,0,.91-.4A1.17,1.17,0,0,0,7,1.25a1.15,1.15,0,0,0-.4-.9A1.43,1.43,0,0,0,5.67,0a1.24,1.24,0,0,0-.91.4,1,1,0,0,0-.38.85,1.11,1.11,0,0,0,.38.87,1.25,1.25,0,0,0,.94.4"/><path class="cls-1" d="M2.61,2.52a1.34,1.34,0,0,0,1-.4,1.23,1.23,0,0,0,.35-.87,1.14,1.14,0,0,0-.38-.9A1.47,1.47,0,0,0,2.61,0a1.51,1.51,0,0,0-.94.35,1.14,1.14,0,0,0-.38.9,1.15,1.15,0,0,0,.38.87,1.32,1.32,0,0,0,.94.4"/><path class="cls-1" d="M2,13.65a4.38,4.38,0,0,0,1.53.73,23,23,0,0,0,2.9.12H77.23a5.78,5.78,0,0,0,3.28.95,5.38,5.38,0,1,0-5.64-5.37,5.31,5.31,0,0,0,.49,2.21H50a6.15,6.15,0,0,0,.8-2.71A4.82,4.82,0,0,0,49.23,6a5.52,5.52,0,0,0-4-1.32h-5A2.53,2.53,0,0,1,41.48,2.4a3.89,3.89,0,0,1,1.39-.19h3.77V0H43.58a12.18,12.18,0,0,0-2,.1A5.34,5.34,0,0,0,39.7.87,3.64,3.64,0,0,0,38.21,3,10,10,0,0,0,38,5.41V6.92h7.49a3.15,3.15,0,0,1,2.4.85A2.65,2.65,0,0,1,48.5,9.6a2.61,2.61,0,0,1-1.06,2.24,3.33,3.33,0,0,1-1.95.45H28.43V4.71H26.21v7.58H18.14V4.71H16v7.58H8.38V4.71H6.5c-.71,0-1.35,0-2,0a4.34,4.34,0,0,0-3,1.32A4.67,4.67,0,0,0,0,9.53a4.77,4.77,0,0,0,2,4.12M80.51,6.77a3.26,3.26,0,0,1,3.33,3.31,3.32,3.32,0,0,1-6.64,0,3.24,3.24,0,0,1,3.31-3.31M3,7.67a2.94,2.94,0,0,1,2.11-.75h1v5.37h-1a4,4,0,0,1-1.51-.21A2.51,2.51,0,0,1,2.24,9.6,2.4,2.4,0,0,1,3,7.67"/><path class="cls-1" d="M17,16.62a1.27,1.27,0,0,0-.93.38,1.21,1.21,0,0,0,0,1.74,1.31,1.31,0,0,0,1,.4,1.27,1.27,0,0,0,.92-.4,1.15,1.15,0,0,0,0-1.74,1.35,1.35,0,0,0-.94-.38"/><path class="cls-1" d="M27.32,2.52a1.27,1.27,0,0,0,.94-.4,1.15,1.15,0,0,0,.38-.87A1.06,1.06,0,0,0,28.26.4a1.36,1.36,0,0,0-1-.4,1.34,1.34,0,0,0-.9.35,1.15,1.15,0,0,0-.4.9,1.17,1.17,0,0,0,.4.87,1.24,1.24,0,0,0,.92.4"/><path class="cls-1" d="M24.24,2.52a1.29,1.29,0,0,0,.94-.4,1.17,1.17,0,0,0,.4-.87,1.15,1.15,0,0,0-.4-.9,1.49,1.49,0,0,0-1-.35,1.32,1.32,0,0,0-.89.35,1.15,1.15,0,0,0-.4.9,1.17,1.17,0,0,0,.4.87,1.26,1.26,0,0,0,.92.4"/></g></g></svg>