<svg xmlns="http://www.w3.org/2000/svg" viewBox="0 0 152.72 23.52"><defs><style>.cls-1{fill:#676058;}</style></defs><title>Asset 91</title><g id="Layer_2" data-name="Layer 2"><g id="Layer_1-2" data-name="Layer 1"><path class="cls-1" d="M40.75,2.17a1.11,1.11,0,0,0,.8-.31,1.05,1.05,0,0,0,.36-.77,1,1,0,0,0-.36-.78A1.13,1.13,0,0,0,40.72,0a1.09,1.09,0,0,0-.79.31,1,1,0,0,0-.31.78,1,1,0,0,0,.33.77,1.09,1.09,0,0,0,.8.31"/><path class="cls-1" d="M39.19,4.88a1.29,1.29,0,0,0,1-.4,1.12,1.12,0,0,0,.37-.87,1.13,1.13,0,0,0-.37-.9,1.49,1.49,0,0,0-1-.35,1.31,1.31,0,0,0-.92.4,1.06,1.06,0,0,0-.38.85,1.13,1.13,0,0,0,.38.87,1.32,1.32,0,0,0,.94.4"/><path class="cls-1" d="M41,3.61a1.13,1.13,0,0,0,.38.87,1.32,1.32,0,0,0,1.89,0,1.12,1.12,0,0,0,.37-.87,1.13,1.13,0,0,0-.37-.9,1.53,1.53,0,0,0-1-.35,1.42,1.42,0,0,0-.92.35,1.14,1.14,0,0,0-.38.9"/><path class="cls-1" d="M83.63,19a1.27,1.27,0,0,0-.92.37,1.2,1.2,0,0,0,0,1.75,1.28,1.28,0,0,0,1.86,0,1.16,1.16,0,0,0,0-1.75,1.37,1.37,0,0,0-.94-.37"/><path class="cls-1" d="M44.22,14.67H41.79V7.08h-2.2v7.59H37.07V7.08H34.85v7.59H8.51A5.43,5.43,0,0,0,9.32,12,4.79,4.79,0,0,0,7.76,8.4a5.73,5.73,0,0,0-4-1.32H1.46V9.29H4.17a3,3,0,0,1,2.08.76A2.48,2.48,0,0,1,7.05,12,2.71,2.71,0,0,1,6,14.23a3.54,3.54,0,0,1-2,.44H0v2.22H46.44V7.08H44.22Z"/><rect class="cls-1" x="48.42" y="2.36" width="2.19" height="14.53"/><path class="cls-1" d="M54.15,16.11c0,1.92-.4,3.28-1.23,4.08a5.3,5.3,0,0,1-1.79,1.11v2.22a6.33,6.33,0,0,0,2.45-1,5.83,5.83,0,0,0,2.79-5.12V7.08H54.15Z"/><path class="cls-1" d="M67.31,7.46a1.17,1.17,0,0,0-.38.89,1.29,1.29,0,0,0,.38.92,1.32,1.32,0,0,0,.94.35,1.29,1.29,0,0,0,.92-.35,1.31,1.31,0,0,0,.4-.92,1.19,1.19,0,0,0-.4-.89,1.34,1.34,0,0,0-1-.38,1.22,1.22,0,0,0-.9.38"/><path class="cls-1" d="M84.78,7.08H82.59v7.59H74.86V7.08h-2.2v8.7a6.54,6.54,0,0,1-.73,3.47,4.13,4.13,0,0,1-3.68,2.2,3.83,3.83,0,0,1-3.37-2A6.3,6.3,0,0,1,64,15.9V13.19H61.79v2.92a10.47,10.47,0,0,0,.38,3.16,6.44,6.44,0,0,0,1.34,2.22,6.29,6.29,0,0,0,4.74,2,6.22,6.22,0,0,0,5.45-2.66,6.07,6.07,0,0,0,.88-1.68,8.93,8.93,0,0,0,.25-2.24h10Z"/><path class="cls-1" d="M147.08,7.05a5.39,5.39,0,0,0-5.63,5.37,5.32,5.32,0,0,0,.51,2.25h-9.05V12.05a4.74,4.74,0,0,0-2-4.08,3.79,3.79,0,0,0-1.75-.77,8.5,8.5,0,0,0-1.89-.12h-2V9.29h2.36a3.38,3.38,0,0,1,2,.52,2.23,2.23,0,0,1,.9,1.4A8.11,8.11,0,0,1,130.7,13v1.65H116.75a5.47,5.47,0,0,0,.5-2.25,5.38,5.38,0,0,0-5.64-5.37h0A5.39,5.39,0,0,0,106,12.42a5.31,5.31,0,0,0,.5,2.25H99.83a5.51,5.51,0,0,0,.8-2.66A4.79,4.79,0,0,0,99.07,8.4a5.72,5.72,0,0,0-4-1.32H92.77V9.29h2.72a3,3,0,0,1,2.07.76A2.46,2.46,0,0,1,98.37,12a2.69,2.69,0,0,1-1.09,2.25,3.54,3.54,0,0,1-2,.44h-4v2.22h17.08a5.56,5.56,0,0,0,2.25.82l.12,0,.3,0,.46,0h.09c.21,0,.42,0,.61,0h0a4.89,4.89,0,0,0,.57-.08h.06l.21-.05a5.52,5.52,0,0,0,1.7-.72h28.56a9.84,9.84,0,0,0,3.74.9,5.38,5.38,0,1,0,0-10.74m-35.5,8.67h-.32a3.23,3.23,0,0,1-3-3.29,3.3,3.3,0,1,1,3.27,3.3m35.5,0a3.24,3.24,0,0,1-3.3-3.31,3.32,3.32,0,0,1,6.64,0,3.27,3.27,0,0,1-3.34,3.31"/></g></g></svg>