<svg xmlns="http://www.w3.org/2000/svg" viewBox="0 0 46.51 53"><defs><style>.cls-1,.cls-2{fill:none;stroke:#fff;stroke-miterlimit:2.61;stroke-width:1.2px;}.cls-2{fill-rule:evenodd;}</style></defs><title>Asset 221</title><g id="Layer_2" data-name="Layer 2"><g id="Layer_1-2" data-name="Layer 1"><line class="cls-1" x1="7.34" y1="43.49" x2="7.03" y2="52.93"/><line class="cls-1" x1="35.06" y1="52.93" x2="34.75" y2="43.49"/><polyline class="cls-2" points="14.54 32.8 18.49 37.7 21.43 33.56"/><path class="cls-2" d="M.6,52.93,1.81,42.44c.91-7.89,6.07-7.62,12.67-9.61l1.91-2,5,2.77H25l5-2.77,1.9,2"/><path class="cls-2" d="M14.54,32.83l1.9-2,5,2.77h3.6l5-2.77,1.9,2c6.61,2,11.77,1.72,12.68,9.61l1.21,10.49"/><polyline class="cls-2" points="31.92 32.8 27.97 37.7 25.03 33.56"/><path class="cls-2" d="M12.68,15.53c-3.31-.38-3.23,4.89.26,5.61a11.13,11.13,0,0,0,8.41,8.61,10.79,10.79,0,0,0,3.76,0,11.15,11.15,0,0,0,8.41-8.61c3.48-.72,3.57-6,.26-5.61"/><path class="cls-2" d="M33,16.27C33.64,7.55,17.23,19,16.3,9.62l0,0c-2.56,1.32-3.21,3.34-2.66,6.57"/><path class="cls-2" d="M14.2,17.58c0-.21-.53-2.08-2-2.13C10.42,9.57,12,3,17.07,2.92c6.18-5.93,21.29,0,17.22,12.3a3.21,3.21,0,0,0-2,2.8"/></g></g></svg>