<svg xmlns="http://www.w3.org/2000/svg" viewBox="0 0 152.8 11.06"><defs><style>.cls-1{fill:#676058;}</style></defs><title>Asset 71</title><g id="Layer_2" data-name="Layer 2"><g id="Layer_1-2" data-name="Layer 1"><polygon class="cls-1" points="0 0 3.69 3.72 7.36 0 7.36 8.45 5.83 8.45 5.83 3.34 3.69 5.56 1.53 3.34 1.53 8.45 0 8.45 0 0"/><path class="cls-1" d="M11.5,1.9a3.36,3.36,0,1,1,0,6.72,3.36,3.36,0,1,1,0-6.72m0,5.43a2.07,2.07,0,1,0,0-4.14A2,2,0,0,0,9.43,5.26,2,2,0,0,0,11.5,7.33"/><path class="cls-1" d="M15.54.17h1.38V2.88h0a2.25,2.25,0,0,1,2-1,2.55,2.55,0,0,1,2.47,2.7V8.45H20V4.9a1.42,1.42,0,0,0-1.53-1.63,1.49,1.49,0,0,0-1.56,1.62V8.45H15.54Z"/><path class="cls-1" d="M27.32,7.67h0a2.59,2.59,0,0,1-2.1.95,3.29,3.29,0,0,1-3.31-3.36A3.43,3.43,0,0,1,25.27,1.9a2.38,2.38,0,0,1,2,1h0V2.07h1.36V8.45H27.32Zm-1.95-.34a2.07,2.07,0,1,0-2-2.07,2,2,0,0,0,2,2.07"/><path class="cls-1" d="M29.69,4.45A2.35,2.35,0,0,1,32,1.9,1.88,1.88,0,0,1,33.93,3h0A1.91,1.91,0,0,1,35.88,1.9a2.36,2.36,0,0,1,2.34,2.55v4H36.84v-4a1.09,1.09,0,0,0-1.05-1.2c-.66,0-1.16.4-1.16,1.39V8.45H33.27V4.66c0-1-.5-1.39-1.15-1.39a1.08,1.08,0,0,0-1,1.2v4H29.69Z"/><path class="cls-1" d="M39.2,4.45A2.35,2.35,0,0,1,41.54,1.9,1.89,1.89,0,0,1,43.45,3h0A1.91,1.91,0,0,1,45.39,1.9a2.35,2.35,0,0,1,2.34,2.55v4H46.35v-4a1.08,1.08,0,0,0-1.05-1.2c-.65,0-1.15.4-1.15,1.39V8.45H42.79V4.66c0-1-.5-1.39-1.16-1.39a1.08,1.08,0,0,0-1.05,1.2v4H39.2Z"/><path class="cls-1" d="M54.84,7.07a3.83,3.83,0,0,1-3,1.55,3.36,3.36,0,1,1,0-6.72,3.44,3.44,0,0,1,3.31,3.59v.25H49.89a1.92,1.92,0,0,0,2,1.66,2.23,2.23,0,0,0,1.84-1ZM53.58,4.6a1.92,1.92,0,0,0-1.89-1.48,1.79,1.79,0,0,0-1.8,1.48Z"/><path class="cls-1" d="M60.77,7.67h0a2.59,2.59,0,0,1-2.1.95,3.29,3.29,0,0,1-3.31-3.36A3.43,3.43,0,0,1,58.72,1.9a2.38,2.38,0,0,1,2,1h0V.17h1.36V8.45H60.77Zm-2-.34a2.07,2.07,0,1,0-2-2.07,2,2,0,0,0,2,2.07"/><path class="cls-1" d="M68.64,5.37a1.3,1.3,0,0,0,.53-1.08,1.56,1.56,0,0,0-1.7-1.59h-3V8.44h3.25a1.68,1.68,0,0,0,1.81-1.7,1.45,1.45,0,0,0-.84-1.37m-3,.73h1.91a.63.63,0,0,1,.69.59.63.63,0,0,1-.69.57H65.65Zm1.71-1.19H65.65v-1h1.71a.51.51,0,1,1,0,1"/><rect class="cls-1" x="69.88" y="3.97" width="1.12" height="4.47"/><path class="cls-1" d="M74,3.86a1.67,1.67,0,0,0-1.21.47V4H71.69V8.44h1.14V6a.88.88,0,0,1,.93-1c.61,0,.91.33.91,1V8.44H75.8V5.77A1.82,1.82,0,0,0,74,3.86"/><path class="cls-1" d="M77.57.16h3.94a2.76,2.76,0,0,1,3,2.85A2.62,2.62,0,0,1,82.56,5.5l2.07,2.95H82.71L81,5.84H79.1V8.45H77.57ZM79.1,4.39h2.29C82.49,4.39,83,3.75,83,3s-.47-1.39-1.57-1.39H79.1Z"/><path class="cls-1" d="M90,7.67h0a2.61,2.61,0,0,1-2.1.95,3.29,3.29,0,0,1-3.31-3.36A3.43,3.43,0,0,1,87.9,1.9a2.38,2.38,0,0,1,2,1h0V2.07h1.36V8.45H90Zm-2-.34a2,2,0,0,0,2-2.07,2,2,0,0,0-2-2.07,2.07,2.07,0,0,0,0,4.14"/><path class="cls-1" d="M92.65,6.55a3,3,0,0,0,2,.94c.8,0,1.26-.45,1.26-.81S95.58,6,95.09,6l-.78-.15C92.51,5.47,92,4.89,92,4a2.24,2.24,0,0,1,2.5-2.09,4.11,4.11,0,0,1,2.53.89l-.78,1A2.62,2.62,0,0,0,94.56,3c-.6,0-1.18.3-1.18.81s.32.58.84.67l1.38.26c1.14.22,1.69.76,1.69,1.7s-.76,2.15-2.71,2.15a4.29,4.29,0,0,1-2.86-1.11Z"/><path class="cls-1" d="M97.67.17H99V2.88h0a2.27,2.27,0,0,1,2-1,2.55,2.55,0,0,1,2.48,2.7V8.45h-1.37V4.9c0-1.15-.61-1.63-1.53-1.63A1.49,1.49,0,0,0,99,4.89V8.45H97.67Z"/><rect class="cls-1" x="104.51" y="2.07" width="1.36" height="6.38"/><path class="cls-1" d="M111.86,7.67h0a2.61,2.61,0,0,1-2.1.95,3.29,3.29,0,0,1-3.31-3.36A3.43,3.43,0,0,1,109.8,1.9a2.38,2.38,0,0,1,2,1h0V.17h1.36V8.45h-1.36Zm-2-.34a2,2,0,0,0,2-2.07,2,2,0,0,0-2-2.07,2.07,2.07,0,0,0,0,4.14"/><polygon class="cls-1" points="116.2 0.17 117.73 0.17 117.73 7 120.98 7 120.98 5.02 122.51 5.02 122.51 8.45 116.2 8.45 116.2 0.17"/><rect class="cls-1" x="123.13" y="2.07" width="1.36" height="6.38"/><path class="cls-1" d="M125.51.16h1.38V2.85h0a2.57,2.57,0,0,1,2.09-1,3.27,3.27,0,0,1,3.32,3.36A3.27,3.27,0,0,1,129,8.62a2.57,2.57,0,0,1-2.09-.95h0v.78h-1.38Zm3.36,3a2,2,0,0,0-2,2.07,2,2,0,1,0,4,0,2,2,0,0,0-2-2.07"/><path class="cls-1" d="M132.84,2.07h1.29v.7h0a1.39,1.39,0,0,1,2-.67l-.5,1.35a.93.93,0,0,0-.51-.18.94.94,0,0,0-.94,1V8.45h-1.38Z"/><path class="cls-1" d="M141.2,7.67h0a2.59,2.59,0,0,1-2.1.95,3.29,3.29,0,0,1-3.31-3.36,3.43,3.43,0,0,1,3.39-3.36,2.38,2.38,0,0,1,2,1h0V2.07h1.37V8.45H141.2Zm-1.95-.34a2.07,2.07,0,1,0-2-2.07,2,2,0,0,0,2,2.07"/><path class="cls-1" d="M143.57,2.07h1.29v.7h0a1.39,1.39,0,0,1,2-.67l-.5,1.35a.93.93,0,0,0-.51-.18.94.94,0,0,0-.94,1V8.45h-1.38Z"/><path class="cls-1" d="M147,2.07h1.38V5.82a1.37,1.37,0,0,0,1.5,1.51,1.48,1.48,0,0,0,1.59-1.65V2.07h1.36V8.26a2.84,2.84,0,0,1-2.91,2.8,3.19,3.19,0,0,1-2.71-1.24l1.17-.72a2,2,0,0,0,1.45.67,1.59,1.59,0,0,0,1.71-1.68V7.75h0a2.25,2.25,0,0,1-1.92.87A2.62,2.62,0,0,1,147,5.76Z"/></g></g></svg>