<svg xmlns="http://www.w3.org/2000/svg" xmlns:xlink="http://www.w3.org/1999/xlink" viewBox="0 0 127.06 72.77"><defs><style>.cls-1{fill:none;}.cls-2{clip-path:url(#clip-path);}.cls-3{fill:#676058;}.cls-4{fill:#e24e16;}</style><clipPath id="clip-path"><rect class="cls-1" width="127.06" height="72.77"/></clipPath></defs><title>Asset 31</title><g id="Layer_2" data-name="Layer 2"><g id="Layer_1-2" data-name="Layer 1"><g class="cls-2"><path class="cls-3" d="M27.53,46.67H26V42H24.66v4.71H23.1V42H21.72v4.71H5.37A3.38,3.38,0,0,0,5.87,45a3,3,0,0,0-1-2.24A3.59,3.59,0,0,0,2.4,42H1v1.38H2.68A1.87,1.87,0,0,1,4,43.8a1.54,1.54,0,0,1,.5,1.2,1.67,1.67,0,0,1-.68,1.4,2.16,2.16,0,0,1-1.23.27H.09v1.38H28.91V42H27.53Z"/><path class="cls-3" d="M25.38,38.91a.73.73,0,0,0,.5-.19.67.67,0,0,0,.22-.48.64.64,0,0,0-.22-.48.74.74,0,0,0-.52-.19.7.7,0,0,0-.49.19.69.69,0,0,0,0,1,.73.73,0,0,0,.5.19"/><path class="cls-3" d="M24.41,40.6a.8.8,0,0,0,.59-.25.72.72,0,0,0,.23-.54.7.7,0,0,0-.23-.56.92.92,0,0,0-.6-.22.81.81,0,0,0-.57.25.66.66,0,0,0-.24.53.73.73,0,0,0,.24.54.81.81,0,0,0,.58.25"/><path class="cls-3" d="M25.51,39.81a.73.73,0,0,0,.24.54.81.81,0,0,0,.58.25.83.83,0,0,0,.59-.25.72.72,0,0,0,.23-.54.7.7,0,0,0-.23-.56,1,1,0,0,0-.6-.22.86.86,0,0,0-.57.22.71.71,0,0,0-.24.56"/><rect class="cls-3" x="30.14" y="39.03" width="1.36" height="9.02"/><path class="cls-3" d="M33.7,47.57a3.42,3.42,0,0,1-.77,2.53,3.31,3.31,0,0,1-1.11.69v1.38a3.89,3.89,0,0,0,1.52-.62,3.59,3.59,0,0,0,1.73-3.18V42H33.7Z"/><path class="cls-3" d="M41.86,42.19a.75.75,0,0,0-.23.56.78.78,0,0,0,.23.57.85.85,0,0,0,.59.22.8.8,0,0,0,.82-.79.77.77,0,0,0-.25-.56.87.87,0,0,0-.6-.23.81.81,0,0,0-.56.23"/><path class="cls-3" d="M52,49.37a.82.82,0,0,0-.57.23.76.76,0,0,0,0,1.09.8.8,0,0,0,.59.25.79.79,0,0,0,.57-.25.72.72,0,0,0,0-1.09.87.87,0,0,0-.59-.23"/><path class="cls-3" d="M52.71,42H51.35v4.71h-4.8V42H45.19v5.4a4.11,4.11,0,0,1-.46,2.16,2.56,2.56,0,0,1-2.28,1.36,2.36,2.36,0,0,1-2.09-1.22,3.87,3.87,0,0,1-.56-2.22V45.75H38.44v1.82a6.57,6.57,0,0,0,.23,2,4.1,4.1,0,0,0,.84,1.38,4.21,4.21,0,0,0,6.32-.43,3.76,3.76,0,0,0,.55-1,5.82,5.82,0,0,0,.16-1.39h6.17Z"/><path class="cls-3" d="M44.87,29.16a.78.78,0,0,0,.56-.25.74.74,0,0,0,.25-.54.72.72,0,0,0-.25-.56.9.9,0,0,0-.58-.22.79.79,0,0,0-.57.25.66.66,0,0,0-.23.53.72.72,0,0,0,.23.54.8.8,0,0,0,.59.25"/><path class="cls-3" d="M43,29.16a.84.84,0,0,0,.6-.25.75.75,0,0,0,.22-.54.68.68,0,0,0-.24-.56.87.87,0,0,0-1.16,0,.71.71,0,0,0-.24.56.73.73,0,0,0,.24.54.81.81,0,0,0,.58.25"/><path class="cls-3" d="M42.58,36.07a3,3,0,0,0,1,.45,15.39,15.39,0,0,0,1.8.07H89.26a3.59,3.59,0,0,0,2,.59,3.33,3.33,0,1,0-3.5-3.33,3.41,3.41,0,0,0,.3,1.37H72.34a3.9,3.9,0,0,0,.5-1.68,3,3,0,0,0-1-2.21,3.46,3.46,0,0,0-2.49-.82H66.27a1.58,1.58,0,0,1,.81-1.43,2.51,2.51,0,0,1,.86-.11h2.34V27.59h-1.9a8.84,8.84,0,0,0-1.24.06,3.44,3.44,0,0,0-1.17.48,2.21,2.21,0,0,0-.92,1.3A5.79,5.79,0,0,0,64.89,31v.94h4.64a2,2,0,0,1,1.49.52,1.66,1.66,0,0,1,.41,1.14,1.62,1.62,0,0,1-.66,1.39,2.08,2.08,0,0,1-1.21.28H59V30.51H57.6v4.71h-5V30.51H51.23v4.71h-4.7V30.51H45.36c-.44,0-.83,0-1.25,0a2.67,2.67,0,0,0-1.86.82,2.91,2.91,0,0,0-.92,2.16,3,3,0,0,0,1.25,2.56M91.3,31.8a2.05,2.05,0,1,1-2,2.05,2,2,0,0,1,2-2.05m-48.09.56a1.82,1.82,0,0,1,1.32-.47h.64v3.33h-.61a2.44,2.44,0,0,1-.94-.13,1.56,1.56,0,0,1-.9-1.54,1.47,1.47,0,0,1,.49-1.19"/><path class="cls-3" d="M51.87,37.91a.82.82,0,0,0-.57.23.69.69,0,0,0-.23.54.68.68,0,0,0,.23.54.8.8,0,0,0,1.16,0,.68.68,0,0,0,.24-.54.7.7,0,0,0-.24-.54.89.89,0,0,0-.59-.23"/><path class="cls-3" d="M58.29,29.16a.79.79,0,0,0,.58-.25.72.72,0,0,0,.23-.54.66.66,0,0,0-.23-.53.86.86,0,0,0-.6-.25.81.81,0,0,0-.55.22.72.72,0,0,0-.25.56.74.74,0,0,0,.25.54.76.76,0,0,0,.57.25"/><path class="cls-3" d="M56.37,29.16a.8.8,0,0,0,.59-.25.74.74,0,0,0,.25-.54.72.72,0,0,0-.25-.56.92.92,0,0,0-.6-.22.85.85,0,0,0-.56.22.72.72,0,0,0-.25.56.74.74,0,0,0,.25.54.79.79,0,0,0,.57.25"/><path class="cls-3" d="M91.38,41.94a3.35,3.35,0,0,0-3.5,3.33,3.23,3.23,0,0,0,.32,1.4H82.58V45.05a2.93,2.93,0,0,0-1.25-2.53A2.33,2.33,0,0,0,80.24,42,5.46,5.46,0,0,0,79.07,42H77.84v1.38H79.3a2.06,2.06,0,0,1,1.26.32,1.31,1.31,0,0,1,.56.86,4.83,4.83,0,0,1,.09,1.13v1H72.55a3.33,3.33,0,0,0-3.19-4.73h0a3.33,3.33,0,0,0-3.18,4.73H62.05a3.38,3.38,0,0,0,.5-1.65,3,3,0,0,0-1-2.24,3.57,3.57,0,0,0-2.5-.82H57.67v1.38h1.68a1.81,1.81,0,0,1,1.29.47,1.51,1.51,0,0,1,.5,1.19,1.66,1.66,0,0,1-.67,1.4,2.18,2.18,0,0,1-1.23.27H56.76v1.38h10.6a3.5,3.5,0,0,0,1.4.51h.07l.19,0h.34l.38,0h0a3.37,3.37,0,0,0,.36-.06h0l.13,0a3.5,3.5,0,0,0,1.06-.45H89.06a6,6,0,0,0,2.32.56,3.34,3.34,0,1,0,0-6.67m-22,5.39h-.2a2.07,2.07,0,1,1,.2,0m22,0a2.06,2.06,0,1,1,2.07-2.06,2,2,0,0,1-2.07,2.06"/><polygon class="cls-3" points="0 55.32 2.29 57.62 4.57 55.32 4.57 60.56 3.62 60.56 3.62 57.39 2.29 58.77 0.95 57.39 0.95 60.56 0 60.56 0 55.32"/><path class="cls-3" d="M7.13,56.5a2.08,2.08,0,1,1,0,4.16,2.08,2.08,0,1,1,0-4.16m0,3.36a1.28,1.28,0,1,0-1.28-1.28,1.26,1.26,0,0,0,1.28,1.28"/><path class="cls-3" d="M9.65,55.42h.85V57.1h0a1.41,1.41,0,0,1,1.22-.6,1.58,1.58,0,0,1,1.53,1.67v2.39h-.84v-2.2c0-.72-.38-1-.95-1a.93.93,0,0,0-1,1v2.21H9.65Z"/><path class="cls-3" d="M17,60.08h0a1.62,1.62,0,0,1-1.3.58,2,2,0,0,1-2.06-2.08,2.12,2.12,0,0,1,2.1-2.08,1.48,1.48,0,0,1,1.26.58h0V56.6h.84v4H17Zm-1.21-.22a1.28,1.28,0,0,0,0-2.56,1.28,1.28,0,0,0,0,2.56"/><path class="cls-3" d="M18.43,58.08a1.45,1.45,0,0,1,1.45-1.58,1.17,1.17,0,0,1,1.18.7h0a1.19,1.19,0,0,1,1.19-.7,1.46,1.46,0,0,1,1.45,1.58v2.48h-.86V58.09a.67.67,0,0,0-.65-.75c-.41,0-.71.26-.71.87v2.35h-.85V58.21c0-.61-.31-.87-.72-.87a.67.67,0,0,0-.65.75v2.47h-.85Z"/><path class="cls-3" d="M24.33,58.08a1.45,1.45,0,0,1,1.45-1.58,1.18,1.18,0,0,1,1.19.7h0a1.2,1.2,0,0,1,1.19-.7,1.46,1.46,0,0,1,1.46,1.58v2.48h-.86V58.09a.68.68,0,0,0-.65-.75c-.41,0-.72.26-.72.87v2.35h-.84V58.21c0-.61-.31-.87-.72-.87a.67.67,0,0,0-.65.75v2.47h-.86Z"/><path class="cls-3" d="M34,59.71a2.36,2.36,0,0,1-1.84.95,2.08,2.08,0,1,1,0-4.16,2.13,2.13,0,0,1,2.06,2.22v.16H31a1.19,1.19,0,0,0,1.21,1,1.4,1.4,0,0,0,1.15-.61Zm-.78-1.54a1.18,1.18,0,0,0-1.17-.92,1.13,1.13,0,0,0-1.12.92Z"/><path class="cls-3" d="M37.72,60.08h0a1.62,1.62,0,0,1-1.3.58,2,2,0,0,1-2.06-2.08,2.12,2.12,0,0,1,2.1-2.08,1.48,1.48,0,0,1,1.26.58h0V55.42h.84v5.14h-.84Zm-1.21-.22a1.28,1.28,0,1,0-1.27-1.28,1.26,1.26,0,0,0,1.27,1.28"/><path class="cls-3" d="M42.6,58.65a.79.79,0,0,0,.33-.67,1,1,0,0,0-1-1H40v3.57h2a1,1,0,0,0,1.12-1.06.88.88,0,0,0-.52-.85m-1.85.45h1.18a.37.37,0,1,1,0,.72H40.75Zm1.06-.74H40.75v-.63h1.06a.32.32,0,1,1,0,.63"/><rect class="cls-3" x="43.37" y="57.78" width="0.7" height="2.78"/><path class="cls-3" d="M46,57.71a1.08,1.08,0,0,0-.75.29v-.22h-.7v2.78h.7V59a.55.55,0,0,1,.58-.6c.38,0,.57.21.57.61v1.54h.7V58.9A1.13,1.13,0,0,0,46,57.71"/><path class="cls-3" d="M48.14,55.42h2.45a1.71,1.71,0,0,1,1.85,1.77,1.62,1.62,0,0,1-1.2,1.54l1.29,1.83H51.34l-1.08-1.62H49.09v1.62h-1Zm1,2.62h1.43c.68,0,1-.4,1-.85a.85.85,0,0,0-1-.87H49.09Z"/><path class="cls-3" d="M55.83,60.08h0a1.62,1.62,0,0,1-1.3.58,2,2,0,0,1-2.06-2.08,2.12,2.12,0,0,1,2.1-2.08,1.48,1.48,0,0,1,1.26.58h0V56.6h.84v4h-.84Zm-1.21-.22a1.28,1.28,0,1,0-1.27-1.28,1.26,1.26,0,0,0,1.27,1.28"/><path class="cls-3" d="M57.5,59.38a1.85,1.85,0,0,0,1.25.59c.49,0,.78-.28.78-.51s-.2-.39-.51-.45l-.49-.09c-1.11-.21-1.42-.57-1.42-1.13a1.39,1.39,0,0,1,1.55-1.29,2.57,2.57,0,0,1,1.58.55l-.49.59a1.63,1.63,0,0,0-1.06-.44c-.37,0-.73.18-.73.5s.19.36.52.42l.85.15c.71.14,1.06.48,1.06,1.06s-.48,1.33-1.69,1.33A2.64,2.64,0,0,1,56.93,60Z"/><path class="cls-3" d="M60.62,55.42h.85V57.1h0a1.41,1.41,0,0,1,1.22-.6,1.59,1.59,0,0,1,1.54,1.67v2.39h-.85v-2.2c0-.72-.38-1-1-1a.93.93,0,0,0-1,1v2.21h-.85Z"/><rect class="cls-3" x="64.87" y="56.6" width="0.85" height="3.96"/><path class="cls-3" d="M69.43,60.08h0a1.62,1.62,0,0,1-1.3.58,2,2,0,0,1-2.06-2.08,2.12,2.12,0,0,1,2.1-2.08,1.5,1.5,0,0,1,1.26.58h0V55.42h.84v5.14h-.84Zm-1.21-.22A1.28,1.28,0,1,0,67,58.58a1.26,1.26,0,0,0,1.27,1.28"/><polygon class="cls-3" points="72.12 55.42 73.07 55.42 73.07 59.66 75.09 59.66 75.09 58.43 76.04 58.43 76.04 60.56 72.12 60.56 72.12 55.42"/><rect class="cls-3" x="76.42" y="56.6" width="0.85" height="3.96"/><path class="cls-3" d="M77.9,55.42h.86v1.66h0a1.6,1.6,0,0,1,1.29-.58,2.08,2.08,0,0,1,0,4.16,1.6,1.6,0,0,1-1.29-.58h0v.48H77.9ZM80,57.3a1.29,1.29,0,1,0,1.24,1.28A1.22,1.22,0,0,0,80,57.3"/><path class="cls-3" d="M82.45,56.6h.8V57h0a.84.84,0,0,1,.78-.54.81.81,0,0,1,.46.12l-.3.84a.64.64,0,0,0-.32-.12.59.59,0,0,0-.59.6v2.62h-.85Z"/><path class="cls-3" d="M87.64,60.08h0a1.62,1.62,0,0,1-1.3.58,2,2,0,0,1-2.06-2.08,2.12,2.12,0,0,1,2.1-2.08,1.48,1.48,0,0,1,1.26.58h0V56.6h.85v4h-.85Zm-1.21-.22a1.28,1.28,0,1,0-1.27-1.28,1.26,1.26,0,0,0,1.27,1.28"/><path class="cls-3" d="M89.11,56.6h.8V57h0a.84.84,0,0,1,.78-.54.81.81,0,0,1,.46.12l-.3.84a.64.64,0,0,0-.32-.12.59.59,0,0,0-.59.6v2.62h-.85Z"/><path class="cls-3" d="M91.22,56.6h.86v2.33a.85.85,0,0,0,.93.93.91.91,0,0,0,1-1V56.6h.85v3.84A1.77,1.77,0,0,1,93,62.18a2,2,0,0,1-1.68-.77l.73-.45a1.25,1.25,0,0,0,.9.42,1,1,0,0,0,1.06-1v-.21h0a1.38,1.38,0,0,1-1.19.53,1.62,1.62,0,0,1-1.61-1.77Z"/><path class="cls-4" d="M104.34,0V72.77h22.72V21.63a19.7,19.7,0,0,0-4.19,1.64A20.29,20.29,0,0,0,120.12,25c-.72.52-1.85,1.43-3.25,2.57l-.28.23L113.89,25l.29-.28c.58-.54,1.34-1.2,2.33-2a18,18,0,0,1,1.67-1.21c-3-1.16-4.5-3.21-4.5-6.1a6.23,6.23,0,0,1,2.13-4.84,8.31,8.31,0,0,1,5.63-1.86c.35,0,.87,0,1.5.1l.35,0v3.94l-.45-.07a8.1,8.1,0,0,0-1.26-.12,4.49,4.49,0,0,0-2.82.85,2.3,2.3,0,0,0-1,2A2.37,2.37,0,0,0,119,17.55a6.23,6.23,0,0,0,3.58.94,19.15,19.15,0,0,0,4.34-.82l.14,0V0Z"/></g></g></g></svg>