<svg xmlns="http://www.w3.org/2000/svg" viewBox="0 0 29.04 25.49"><defs><style>.cls-1{fill:#97bbaa;}.cls-2{fill:#b2cbc0;}.cls-3{fill:#f9f4e6;}.cls-4{fill:#f4e0ac;}.cls-5{fill:#f7ecd0;}.cls-6{fill:none;stroke:#512a44;stroke-linecap:round;stroke-linejoin:round;stroke-width:0.5px;}</style></defs><title>Asset 41</title><g id="Layer_2" data-name="Layer 2"><g id="Layer_1-2" data-name="Layer 1"><polygon class="cls-1" points="0.25 9.77 0.25 20.29 8.79 25.24 28.79 21.25 28.79 10.18 8.8 12.88 0.25 9.77"/><polygon class="cls-2" points="0.25 9.38 0.25 19.9 8.79 24.85 8.8 12.49 0.25 9.38"/><path class="cls-3" d="M8.8,5.82C7.92,5.82.25,2.66.25,2.66V9.77L8.8,12.85Z"/><path class="cls-4" d="M28.79,3.07c-.88,0-20,3-20,3v6.85l20-2.7Z"/><path class="cls-5" d="M19.87,0C19,0,.25,2.66.25,2.66L8.8,5.82l20-2.75Z"/><polygon class="cls-6" points="28.79 3.07 8.79 5.82 8.79 25.24 28.79 21.25 28.79 3.07"/><polygon class="cls-6" points="28.79 3.07 8.8 5.76 0.25 2.66 19.87 0.32 28.79 3.07"/><polyline class="cls-6" points="21.79 6.49 28.79 8.51 8.8 11.21 0.25 8.1 5.55 7.47"/><polyline class="cls-6" points="28.79 10.18 8.8 12.88 8.79 12.88 0.25 9.77"/><polygon class="cls-6" points="0.25 2.66 8.79 5.82 8.79 25.24 0.25 20.29 0.25 2.66"/><line class="cls-6" x1="19.87" y1="2.66" x2="19.87" y2="0.32"/><line class="cls-6" x1="13.97" y1="14.38" x2="13.44" y2="15.2"/><line class="cls-6" x1="12.6" y1="16.56" x2="11.15" y2="18.63"/><line class="cls-6" x1="15.92" y1="15.44" x2="11.49" y2="21.82"/></g></g></svg>