<svg xmlns="http://www.w3.org/2000/svg" viewBox="0 0 36.4 36.25"><defs><style>.cls-1{fill:#f2b236;}.cls-2{fill:#ea5b1f;}.cls-3{fill:#512a44;}</style></defs><title>Asset 91</title><g id="Layer_2" data-name="Layer 2"><g id="Layer_1-2" data-name="Layer 1"><circle class="cls-1" cx="29.74" cy="29.82" r="1.46"/><circle class="cls-1" cx="34.31" cy="18.25" r="1.46"/><circle class="cls-1" cx="29.72" cy="6.69" r="1.46"/><circle class="cls-1" cx="18.21" cy="2.09" r="1.46"/><circle class="cls-1" cx="6.69" cy="6.69" r="1.46"/><circle class="cls-1" cx="2.09" cy="18.27" r="1.46"/><circle class="cls-1" cx="6.69" cy="29.82" r="1.46"/><circle class="cls-1" cx="18.18" cy="34.39" r="1.46"/><circle class="cls-2" cx="20.51" cy="29.82" r="0.77"/><circle class="cls-2" cx="29.72" cy="25.18" r="0.77"/><circle class="cls-2" cx="29.72" cy="20.59" r="0.77"/><circle class="cls-2" cx="29.74" cy="11.33" r="0.77"/><circle class="cls-2" cx="20.52" cy="8.92" r="0.77"/><circle class="cls-2" cx="15.91" cy="6.69" r="0.77"/><circle class="cls-2" cx="13.58" cy="9.03" r="0.77"/><circle class="cls-2" cx="6.69" cy="15.98" r="0.77"/><circle class="cls-2" cx="8.99" cy="20.6" r="0.77"/><circle class="cls-2" cx="6.69" cy="25.2" r="0.77"/><circle class="cls-2" cx="15.9" cy="27.5" r="0.77"/><path class="cls-3" d="M6.68,16.91A.93.93,0,1,1,7.62,16,.93.93,0,0,1,6.68,16.91Zm0-1.36a.43.43,0,0,0-.42.43.43.43,0,1,0,.85,0A.43.43,0,0,0,6.68,15.55Z"/><path class="cls-3" d="M9,21.53a.93.93,0,1,1,.93-.93A.93.93,0,0,1,9,21.53Zm0-1.36A.43.43,0,0,0,9,21a.43.43,0,1,0,0-.86Z"/><path class="cls-3" d="M15.89,28.43a.93.93,0,1,1,.93-.93A.93.93,0,0,1,15.89,28.43Zm0-1.36a.43.43,0,0,0-.43.43.43.43,0,1,0,.85,0A.43.43,0,0,0,15.89,27.07Z"/><path class="cls-3" d="M20.52,30.76a.94.94,0,1,1,.93-.94A.94.94,0,0,1,20.52,30.76Zm0-1.36a.43.43,0,1,0,.42.42A.42.42,0,0,0,20.52,29.4Z"/><path class="cls-3" d="M6.68,26.13a.93.93,0,1,1,.94-.93A.93.93,0,0,1,6.68,26.13Zm0-1.36a.43.43,0,1,0,.43.43A.42.42,0,0,0,6.68,24.77Z"/><path class="cls-3" d="M13.58,10a.93.93,0,0,1,0-1.86.93.93,0,0,1,0,1.86Zm0-1.36a.43.43,0,0,0-.43.43.44.44,0,0,0,.43.43A.43.43,0,0,0,14,9,.43.43,0,0,0,13.58,8.6Z"/><path class="cls-3" d="M15.9,7.62a.93.93,0,1,1,.93-.93A.93.93,0,0,1,15.9,7.62Zm0-1.36a.43.43,0,0,0-.43.43.43.43,0,1,0,.86,0A.43.43,0,0,0,15.9,6.26Z"/><path class="cls-3" d="M20.52,10a.93.93,0,1,1,.93-.93A.94.94,0,0,1,20.52,10Zm0-1.36a.43.43,0,1,0,.42.43A.43.43,0,0,0,20.52,8.62Z"/><path class="cls-3" d="M27.37,16.9A.94.94,0,1,1,28.3,16,.94.94,0,0,1,27.37,16.9Zm0-1.36a.43.43,0,1,0,.43.42A.42.42,0,0,0,27.37,15.54Z"/><path class="cls-3" d="M29.74,26.13a.93.93,0,1,1,.94-.93A.93.93,0,0,1,29.74,26.13Zm0-1.36a.43.43,0,1,0,.43.43A.42.42,0,0,0,29.74,24.77Z"/><path class="cls-3" d="M29.72,21.52a.93.93,0,1,1,.93-.93A.93.93,0,0,1,29.72,21.52Zm0-1.36a.43.43,0,0,0,0,.86.43.43,0,0,0,0-.86Z"/><path class="cls-3" d="M29.72,12.26a.93.93,0,1,1,.93-.93A.93.93,0,0,1,29.72,12.26Zm0-1.36a.43.43,0,0,0,0,.86.43.43,0,0,0,0-.86Z"/><path class="cls-3" d="M22,14.1a.46.46,0,0,0,.45.46.47.47,0,0,0,.46-.46.46.46,0,0,0-.46-.45A.45.45,0,0,0,22,14.1Z"/><path class="cls-3" d="M21.29,21.62H15.1a.25.25,0,0,1-.25-.25V15.18a.26.26,0,0,1,.25-.26h6.19a.26.26,0,0,1,.25.26v6.19A.25.25,0,0,1,21.29,21.62Zm-5.94-.51H21V15.43H15.35Z"/><path class="cls-3" d="M24.56,25.39H11.83a.74.74,0,0,1-.75-.75V11.9a.75.75,0,0,1,.75-.75H24.56a.76.76,0,0,1,.76.75V24.64A.75.75,0,0,1,24.56,25.39Zm-12-1.51H23.81V12.66H12.59Z"/><rect class="cls-3" x="17.95" y="3.73" width="0.5" height="7.67"/><rect class="cls-3" x="15.65" y="7.37" width="0.5" height="4.03"/><rect class="cls-3" x="13.34" y="9.71" width="0.5" height="1.69"/><rect class="cls-3" x="17.96" y="25.18" width="0.5" height="7.75"/><rect class="cls-3" x="15.66" y="24.93" width="0.5" height="1.82"/><rect class="cls-3" x="3.5" y="18" width="7.91" height="0.5"/><path class="cls-3" d="M27.41,13.9H24.94v-.5h2.37l1.78-1.74.35.36-1.85,1.81A.24.24,0,0,1,27.41,13.9Z"/><rect class="cls-3" x="25.11" y="18.03" width="7.83" height="0.5"/><rect class="cls-3" x="24.94" y="20.34" width="4.1" height="0.5"/><path class="cls-3" d="M29.12,24.87l-1.77-1.71H24.94v-.51h2.51a.29.29,0,0,1,.18.07l1.84,1.79Z"/><path class="cls-3" d="M11.42,13.88H9a.25.25,0,0,1-.18-.08l-2.3-2.29a.25.25,0,0,1-.08-.18v-3h.51v2.93l2.15,2.14h2.33Z"/><rect class="cls-3" x="9.67" y="20.31" width="1.75" height="0.5"/><rect class="cls-3" x="7.36" y="15.69" width="4.06" height="0.5"/><path class="cls-3" d="M6.68,31.7a1.86,1.86,0,1,1,1.87-1.86A1.86,1.86,0,0,1,6.68,31.7Zm0-2.72a.86.86,0,1,0,.86.86A.86.86,0,0,0,6.68,29Z"/><path class="cls-3" d="M2.09,20.34a2.09,2.09,0,1,1,2.09-2.09A2.1,2.1,0,0,1,2.09,20.34Zm0-3.17a1.08,1.08,0,1,0,1.08,1.08A1.08,1.08,0,0,0,2.09,17.17Z"/><path class="cls-3" d="M6.68,8.78A2.09,2.09,0,1,1,8.77,6.69,2.09,2.09,0,0,1,6.68,8.78Zm0-3.17A1.08,1.08,0,1,0,7.77,6.69,1.08,1.08,0,0,0,6.68,5.61Z"/><path class="cls-3" d="M18.2,4.18a2.09,2.09,0,1,1,2.09-2.09A2.1,2.1,0,0,1,18.2,4.18ZM18.2,1a1.08,1.08,0,1,0,1.08,1.08A1.08,1.08,0,0,0,18.2,1Z"/><path class="cls-3" d="M29.72,8.8a2.09,2.09,0,1,1,2.09-2.09A2.1,2.1,0,0,1,29.72,8.8Zm0-3.18A1.09,1.09,0,1,0,30.8,6.71,1.09,1.09,0,0,0,29.72,5.62Z"/><path class="cls-3" d="M34.31,20.37a2.09,2.09,0,1,1,2.09-2.09A2.1,2.1,0,0,1,34.31,20.37Zm0-3.17a1.08,1.08,0,1,0,1.09,1.08A1.08,1.08,0,0,0,34.31,17.2Z"/><path class="cls-3" d="M29.72,31.91a2.09,2.09,0,1,1,2.09-2.09A2.09,2.09,0,0,1,29.72,31.91Zm0-3.17a1.09,1.09,0,1,0,1.08,1.08A1.09,1.09,0,0,0,29.72,28.74Z"/><path class="cls-3" d="M18.18,36.25A1.86,1.86,0,1,1,20,34.39,1.87,1.87,0,0,1,18.18,36.25Zm0-2.72a.86.86,0,1,0,.85.86A.87.87,0,0,0,18.18,33.53Z"/><path class="cls-3" d="M11.29,30.09h-3v-.5h2.88l2.17-2.18V24.93h.5v2.59a.24.24,0,0,1-.07.18L11.47,30A.24.24,0,0,1,11.29,30.09Z"/><path class="cls-3" d="M28.41,30.09h-3.3a.24.24,0,0,1-.18-.07l-2.29-2.34a.24.24,0,0,1-.07-.18V24.93h.5V27.4l2.15,2.19h3.19Z"/><rect class="cls-3" x="20.27" y="24.93" width="0.5" height="4.22"/><rect class="cls-3" x="20.26" y="9.73" width="0.5" height="1.67"/><path class="cls-3" d="M23.07,11.39h-.5V9a.24.24,0,0,1,.07-.18l2.29-2.32a.27.27,0,0,1,.18-.08H28V7H25.22L23.07,9.13Z"/><path class="cls-3" d="M7.33,24.89,7,24.54,8.81,22.7A.24.24,0,0,1,9,22.63H12.1v.5h-3Z"/></g></g></svg>