<svg xmlns="http://www.w3.org/2000/svg" viewBox="0 0 36.3 24.9"><defs><style>.cls-1{fill:#97bbaa;}.cls-2{fill:#c9dad2;}.cls-3{fill:#512a44;}.cls-4{fill:#f2b236;}.cls-5{fill:#f4dea4;}</style></defs><title>Asset 61</title><g id="Layer_2" data-name="Layer 2"><g id="Layer_1-2" data-name="Layer 1"><path class="cls-1" d="M17.53,1C20.85-.5,33,1.09,35.9,3.38c-.29,2.15-.51,14.18-9.18,16.67a5.89,5.89,0,0,1-4.65-.62C14.24,14.72,17.24,3.11,17.53,1Z"/><path class="cls-2" d="M27,.79c3.75.5,7.43,1.46,8.88,2.59-.29,2.15-.51,14.18-9.18,16.67a6,6,0,0,1-2.27.19l1.05-7.95a6.37,6.37,0,0,0,2.76-1.08C26.21,6.88,27,.79,27,.79Z"/><path class="cls-3" d="M25.12,20.61a5.74,5.74,0,0,1-.71,0,.3.3,0,0,1-.22-.13.32.32,0,0,1-.07-.25l1.05-7.94a.33.33,0,0,1,.28-.29,6.64,6.64,0,0,0,2.4-.84C25.92,6.77,26.65,1,26.68.74a.36.36,0,0,1,.13-.22.32.32,0,0,1,.25-.07c3.29.45,7.39,1.38,9,2.66a.34.34,0,0,1,.13.31c0,.19,0,.47-.08.83-.31,3.41-1.25,13.8-9.33,16.12A6.12,6.12,0,0,1,25.12,20.61Zm-.29-.68a5.45,5.45,0,0,0,1.8-.2c3.25-.93,5.66-3.38,7.15-7.26a30.43,30.43,0,0,0,1.7-8.28q0-.39.06-.66C34.2,2.61,31,1.7,27.31,1.17c-.12,1.32-.46,6.28,1.25,9.9a.32.32,0,0,1-.07.38,6,6,0,0,1-2.69,1.13Z"/><path class="cls-3" d="M28.25,16.8a13.73,13.73,0,0,0-6.83-.91l.14-.15a4.09,4.09,0,0,1,6.57.85Z"/><path class="cls-3" d="M28.25,17.13l-.13,0a13.32,13.32,0,0,0-6.65-.89.32.32,0,0,1-.34-.18.32.32,0,0,1,.05-.38l.15-.16a4.41,4.41,0,0,1,7.09.93,1.13,1.13,0,0,1,.12.21.32.32,0,0,1-.05.38A.32.32,0,0,1,28.25,17.13Zm-5.2-1.69a14.33,14.33,0,0,1,4.35.7A3.76,3.76,0,0,0,25,14.82a3.69,3.69,0,0,0-2.59.64Z"/><path class="cls-3" d="M20.72,6a4.41,4.41,0,0,0,3.35.44l.15,0c-.56,1.74-3.56,1.27-3.65-.49Z"/><path class="cls-3" d="M22.55,7.81l-.34,0a2.12,2.12,0,0,1-2-1.88.34.34,0,0,1,.52-.3l.14.09A4,4,0,0,0,24,6.1l.14,0a.33.33,0,0,1,.42.42A2,2,0,0,1,22.55,7.81ZM21.21,6.6a1.81,1.81,0,0,0,1.09.52,1.69,1.69,0,0,0,1.15-.23A4.62,4.62,0,0,1,21.21,6.6Z"/><path class="cls-3" d="M29.12,7.15a4.32,4.32,0,0,0,3.35.44l.15,0c-.56,1.74-3.56,1.27-3.65-.49Z"/><path class="cls-3" d="M31,9a1.87,1.87,0,0,1-.34,0,2.1,2.1,0,0,1-2-1.87.33.33,0,0,1,.51-.3l.14.08h0a4,4,0,0,0,3.09.41l.14,0a.33.33,0,0,1,.42.42A2,2,0,0,1,31,9ZM29.61,7.76a1.77,1.77,0,0,0,1.09.53,1.69,1.69,0,0,0,1.15-.23A4.75,4.75,0,0,1,29.61,7.76Z"/><path class="cls-3" d="M25.12,20.68a6.38,6.38,0,0,1-3.26-.9c-3.13-1.89-5-5.05-5.42-9.4A30.71,30.71,0,0,1,17,1.77c.07-.37.12-.67.15-.87a.39.39,0,0,1,.24-.31c3.44-1.52,15.72.1,18.77,2.47a.39.39,0,0,1,.15.37c0,.19,0,.47-.08.82C35.9,7.68,35,18.1,26.84,20.44A6.32,6.32,0,0,1,25.12,20.68ZM17.89,1.24c0,.19-.07.41-.11.67a29.59,29.59,0,0,0-.54,8.38c.44,4.09,2.13,7.05,5,8.8a5.48,5.48,0,0,0,4.33.57c3.23-.92,5.62-3.35,7.11-7.22a30.54,30.54,0,0,0,1.69-8.26c0-.24,0-.44.06-.62C32.4,1.47,21.29,0,17.89,1.24Z"/><path class="cls-4" d="M18.75,5.14C15.43,3.7,3.33,5.37.4,7.67.7,9.82,1,21.85,9.68,24.29a5.89,5.89,0,0,0,4.65-.65C22.13,18.88,19.05,7.28,18.75,5.14Z"/><path class="cls-5" d="M9.26,5C5.51,5.56,1.85,6.54.4,7.67.7,9.82,1,21.85,9.68,24.29a5.82,5.82,0,0,0,2.27.17l-1.1-7.94a6.24,6.24,0,0,1-2.76-1.06C10.11,11.11,9.26,5,9.26,5Z"/><path class="cls-3" d="M11.24,24.84a6.14,6.14,0,0,1-1.65-.23C1.49,22.34.49,12,.16,8.54c0-.35-.06-.63-.09-.82A.31.31,0,0,1,.2,7.41c1.64-1.29,5.73-2.25,9-2.72a.32.32,0,0,1,.25.07A.36.36,0,0,1,9.6,5c0,.25.8,6-1.1,10.38a6.55,6.55,0,0,0,2.4.83.34.34,0,0,1,.29.28l1.09,7.94a.32.32,0,0,1-.06.25.32.32,0,0,1-.23.13A6.3,6.3,0,0,1,11.24,24.84ZM.76,7.82c0,.18,0,.4.07.66a30.65,30.65,0,0,0,1.74,8.27c1.52,3.87,4,6.3,7.2,7.21a5.45,5.45,0,0,0,1.8.2l-1-7.35A6,6,0,0,1,7.86,15.7a.32.32,0,0,1-.08-.38C9.47,11.68,9.11,6.73,9,5.41,5.25,6,2.09,6.89.76,7.82Z"/><path class="cls-3" d="M15.22,17.82a11.84,11.84,0,0,1-8,1.12,5.79,5.79,0,0,0,2.9,1.83,3.46,3.46,0,0,0,2.72-.38A5.89,5.89,0,0,0,15.22,17.82Z"/><path class="cls-3" d="M11.09,21.23a4,4,0,0,1-1-.14A6.18,6.18,0,0,1,7,19.16a.36.36,0,0,1,0-.4.34.34,0,0,1,.36-.15,11.51,11.51,0,0,0,7.71-1.08.34.34,0,0,1,.47.44,6.21,6.21,0,0,1-2.46,2.71A3.86,3.86,0,0,1,11.09,21.23Zm-2.8-1.78a5.48,5.48,0,0,0,2,1,3.17,3.17,0,0,0,2.46-.35,5.39,5.39,0,0,0,1.65-1.5A12.63,12.63,0,0,1,8.29,19.45Z"/><path class="cls-3" d="M3.83,12.51a4,4,0,0,1,3.34-.46l.15.06a1.89,1.89,0,0,0-3.64.51A1,1,0,0,1,3.83,12.51Z"/><path class="cls-3" d="M3.68,13a.29.29,0,0,1-.16,0,.35.35,0,0,1-.18-.3,2.15,2.15,0,0,1,1.94-2A2.08,2.08,0,0,1,7.64,12a.33.33,0,0,1-.08.34.35.35,0,0,1-.35.07l-.14-.05A3.64,3.64,0,0,0,4,12.8H4l-.14.09A.33.33,0,0,1,3.68,13Zm1.93-1.72H5.37a1.68,1.68,0,0,0-1.14.67,4.36,4.36,0,0,1,2.39-.33A1.54,1.54,0,0,0,5.61,11.23Z"/><path class="cls-3" d="M12.8,11.27a4,4,0,0,1,3.34-.46l.16.06a1.89,1.89,0,0,0-3.65.51Z"/><path class="cls-3" d="M12.65,11.71a.29.29,0,0,1-.16,0,.35.35,0,0,1-.18-.3,2.15,2.15,0,0,1,1.94-2,2.09,2.09,0,0,1,2.37,1.43.36.36,0,0,1-.09.34.35.35,0,0,1-.35.07l-.14,0a3.64,3.64,0,0,0-3.06.43h0l-.14.09A.31.31,0,0,1,12.65,11.71ZM14.59,10h-.24a1.68,1.68,0,0,0-1.15.67,4.36,4.36,0,0,1,2.39-.33A1.53,1.53,0,0,0,14.59,10Z"/><path class="cls-3" d="M11.25,24.9a6,6,0,0,1-1.68-.23C1.43,22.39.42,12,.09,8.55.06,8.2,0,7.92,0,7.73a.4.4,0,0,1,.15-.37C3.19,5,15.46,3.27,18.91,4.77a.39.39,0,0,1,.24.31c0,.2.08.49.15.86a30.69,30.69,0,0,1,.6,8.61c-.44,4.35-2.24,7.53-5.36,9.43A6.31,6.31,0,0,1,11.25,24.9ZM.83,7.86c0,.17,0,.37.06.61a30.47,30.47,0,0,0,1.74,8.25C4.15,20.58,6.55,23,9.79,23.9a5.46,5.46,0,0,0,4.33-.61c2.89-1.76,4.57-4.73,5-8.82a29.61,29.61,0,0,0-.59-8.38q-.07-.39-.12-.66C15,4.21,3.88,5.74.83,7.86Z"/></g></g></svg>