<svg xmlns="http://www.w3.org/2000/svg" viewBox="0 0 35.83 35.83"><defs><style>.cls-1{fill:#f9f4e6;}.cls-2{fill:#675160;}.cls-3{fill:#8c8189;}.cls-4{fill:#f4e0ac;}.cls-5{fill:#9b9b9b;}.cls-6{fill:#e24e16;}.cls-7{fill:#512a44;}</style></defs><title>Asset 111</title><g id="Layer_2" data-name="Layer 2"><g id="Layer_1-2" data-name="Layer 1"><rect class="cls-1" x="1.68" y="2.86" width="32.29" height="18.9"/><rect class="cls-2" x="8.96" y="16.01" width="18.52" height="3.62"/><rect class="cls-3" x="10.13" y="19.63" width="16.18" height="2.13"/><rect class="cls-2" x="10.64" y="22.39" width="14.55" height="5.04"/><rect class="cls-4" x="0.53" y="0.51" width="34.88" height="2.34"/><path class="cls-5" d="M19.51,11.76s-.9.83.41,1,2.36,1,2.3-.44S20,9.77,19.51,11.76Z"/><path class="cls-5" d="M13.79,11.76s-.91.83.41,1,2.36,1,2.3-.44S14.24,9.77,13.79,11.76Z"/><path class="cls-6" d="M33.59,35v-3.2a1.81,1.81,0,0,0-1.88-1.54,13.9,13.9,0,0,0-2,0V28.55s-1.11-2.4-2.8-2.4-4.48.19-4.48,1.29-.84-.49-1.68-.8-6.16-.92-6.16.87c-1.33-.37-.65-.93-2.19-1s-5.64-.31-6.2,1.42a5.27,5.27,0,0,0,0,2l-1.93.12s-2.25.62-2,1.85a12.66,12.66,0,0,1,0,3.27Z"/><path class="cls-7" d="M26.31,22.39h7.84a.56.56,0,0,0,.56-.56V3.36h.56a.56.56,0,0,0,.56-.56V.56A.56.56,0,0,0,35.27,0H.56A.56.56,0,0,0,0,.56V2.8a.56.56,0,0,0,.56.56h.56V21.83a.56.56,0,0,0,.56.56h8.4v3.36H8.4a2.8,2.8,0,0,0-2.8,2.8v1.12H4.48a2.8,2.8,0,0,0-2.8,2.8v2.24H.56a.56.56,0,1,0,0,1.12H35.27a.56.56,0,1,0,0-1.12H34.15V32.47a2.8,2.8,0,0,0-2.8-2.8H30.23V28.55a2.81,2.81,0,0,0-2.8-2.8H25.75V22.39ZM1.12,2.24V1.12H34.71V2.24ZM9,21.27H2.24V3.36H33.59V21.27H26.87V20.15h.56a.56.56,0,0,0,.56-.56V16.23a.56.56,0,0,0-.56-.56H21.27V13.43h.56a.56.56,0,0,0,.56-.55V11.76a1.68,1.68,0,1,0-3.36,0v1.12a.56.56,0,0,0,.56.55h.56v2.24H15.67V13.43h.56a.56.56,0,0,0,.56-.55V11.76a1.68,1.68,0,1,0-3.36,0v1.12a.56.56,0,0,0,.56.55h.56v2.24H8.4a.56.56,0,0,0-.56.56v3.36a.56.56,0,0,0,.56.56H9Zm11.19-8.95v-.56a.56.56,0,0,1,1.12,0v.56Zm-5.6,0v-.56a.57.57,0,0,1,.56-.56.56.56,0,0,1,.56.56v.56ZM9,19V16.79H26.87V19Zm.56,15.68H2.8V32.47a1.68,1.68,0,0,1,1.68-1.68H7.84a1.68,1.68,0,0,1,1.68,1.68Zm.56-3.91a2.78,2.78,0,0,0-2.24-1.13H6.72V28.55A1.68,1.68,0,0,1,8.4,26.87h3.36a1.68,1.68,0,0,1,1.67,1.68v1.12H12.32A2.77,2.77,0,0,0,10.08,30.8Zm1.12-5.05V22.39H24.63v3.36h-.56a2.77,2.77,0,0,0-2.24,1.13,2.77,2.77,0,0,0-2.24-1.13H16.23A2.8,2.8,0,0,0,14,26.88a2.77,2.77,0,0,0-2.23-1.13Zm6.15,9H10.64V32.47a1.68,1.68,0,0,1,1.68-1.68h3.35a1.68,1.68,0,0,1,1.68,1.68Zm.56-3.91a2.77,2.77,0,0,0-2.24-1.13H14.55V28.55a1.68,1.68,0,0,1,1.68-1.68h3.36a1.68,1.68,0,0,1,1.68,1.68v1.12H20.15A2.78,2.78,0,0,0,17.91,30.8Zm7.28,3.91H18.47V32.47a1.68,1.68,0,0,1,1.68-1.68h3.36a1.68,1.68,0,0,1,1.68,1.68Zm6.16-3.92A1.68,1.68,0,0,1,33,32.47v2.24H26.31V32.47A1.68,1.68,0,0,1,28,30.79Zm-3.92-3.92a1.68,1.68,0,0,1,1.68,1.68v1.12H28a2.77,2.77,0,0,0-2.24,1.13,2.77,2.77,0,0,0-2.24-1.13H22.39V28.55a1.68,1.68,0,0,1,1.68-1.68Zm-17.35-5.6V20.15H25.75v1.12Z"/></g></g></svg>