<svg xmlns="http://www.w3.org/2000/svg" viewBox="0 0 34.31 32.88"><defs><style>.cls-1{fill:#ea5b1f;}.cls-2{fill:#f4dea4;}.cls-3{fill:#f4e0ac;}.cls-4{fill:#f4c584;}.cls-5{fill:#f2b236;}.cls-6{fill:#512a44;}</style></defs><title>Asset 101</title><g id="Layer_2" data-name="Layer 2"><g id="Layer_1-2" data-name="Layer 1"><path class="cls-1" d="M32.39,28.82c-.06.17-2,2.09-2,2.09l1.43,1.16s2.64,0,2.09-1A21.92,21.92,0,0,0,32.39,28.82Z"/><path class="cls-2" d="M17.47,1.68S16.06,1.09,16,3.06,16,26.9,16,26.9s1.4-1,2.11-1.44S29.75,25,29.75,25V2.51s-1.65-.16-1.65-.44-.82-.76-.82-.76S21.66-.08,17.47,1.68Z"/><path class="cls-3" d="M14.4,1.68S16,1.09,16,3.06,16,26.9,16,26.9s-1.54-1-2.33-1.44S.85,25,.85,25V2.51s1.82-.16,1.82-.44.9-.76.9-.76S9.78-.08,14.4,1.68Z"/><path class="cls-4" d="M29.91,2.07l.5,22-7.16,1s-4.24-.43-4.73.23S17.08,27.61,16,26.9a8.5,8.5,0,0,0-3.73-1.42L.52,25.11.85,2.51h2L3,22.3s5.12-.78,6.77-.21,5.78,1.28,7.92.79a54.61,54.61,0,0,1,10.2-.33c.12-3-.25-20.48,0-20.48Z"/><polygon class="cls-5" points="31.84 28.38 22.21 18.46 19.4 17.37 20.15 19.8 30.02 30.42 31.84 28.38"/><path class="cls-6" d="M16,23.86a.67.67,0,0,1-.67-.65V2.73a.67.67,0,0,1,1.34,0V23.21a.67.67,0,0,1-.67.65Z"/><path class="cls-6" d="M32.79,31.39a.65.65,0,0,1-.89,0l-.71-.73.92-.9.71.72a.64.64,0,0,1,0,.92Zm-2.52-1.67L20.66,19.9l-.51-1.44,1.44.54,9.6,9.81-.92.91Zm-10.75-5.3a2.21,2.21,0,0,0-2.11,1,1.59,1.59,0,0,1-2.81,0,2.21,2.21,0,0,0-2.11-1H1.28V3.06h1V22.72a.66.66,0,0,0,.85.63,20.54,20.54,0,0,1,6.42-.82,47.17,47.17,0,0,1,6.27,1.66.61.61,0,0,0,.42,0,51.13,51.13,0,0,1,5.22-1.56l1.76,1.8ZM3.64,2.05a39.2,39.2,0,0,1,6-.72A16,16,0,0,1,15.75,3a.68.68,0,0,0,.59,0,18.22,18.22,0,0,1,5.8-1.63A16.62,16.62,0,0,1,27.28,2v19.8c-.37-.11-.86-.23-1.43-.34L22.42,18a.6.6,0,0,0-.23-.16L19.3,16.74a.65.65,0,0,0-.85.83l1,2.91a.75.75,0,0,0,.15.24l.8.81c-1.64.42-3.71,1.12-4.37,1.35a43.44,43.44,0,0,0-6.38-1.66,20.44,20.44,0,0,0-6,.64V2.05ZM28.23,23.26a.62.62,0,0,0,.26-.54V3.06h1V24.43h-.71l-1.06-1.08a.6.6,0,0,0,.55-.09Zm5.53,6.29L30,25.74h.07a.66.66,0,0,0,.64-.66V2.41a.66.66,0,0,0-.64-.66h-1.6V1.52A.62.62,0,0,0,28.06.9,18.72,18.72,0,0,0,22,0a18.54,18.54,0,0,0-6,1.63A16,16,0,0,0,9.62,0,38.58,38.58,0,0,0,5,.48c-2.38.36-2.68.41-2.68,1v.23H.64A.66.66,0,0,0,0,2.41V25.08a.66.66,0,0,0,.64.66H12.49c.62,0,.86.08,1,.35a2.86,2.86,0,0,0,5,0c.16-.27.4-.35,1-.35h5L31,32.29a2,2,0,0,0,2.8-2.74Z"/></g></g></svg>