<svg xmlns="http://www.w3.org/2000/svg" viewBox="0 0 37.64 27.21"><defs><style>.cls-1,.cls-3{fill:#f4dea4;}.cls-1{stroke:#512a44;stroke-miterlimit:10;stroke-width:0.25px;}.cls-2{fill:#512a44;}.cls-4{fill:#d8c498;}.cls-5{fill:#f9f4e6;}.cls-6{fill:#e2e9ec;}</style></defs><title>Asset 51</title><g id="Layer_2" data-name="Layer 2"><g id="Layer_1-2" data-name="Layer 1"><path class="cls-1" d="M.34,9.75,18,.15a.17.17,0,0,1,.17,0l17.63,9.6a.18.18,0,0,1-.09.33H.43A.18.18,0,0,1,.34,9.75Z"/><polygon class="cls-2" points="7.46 7.9 7.46 8.87 7.48 8.87 7.48 8.88 9.04 8.87 9.04 8.33 9.04 8.33 9.04 8.19 7.95 8.19 7.95 8.33 8.83 8.33 8.83 8.78 7.73 8.78 7.73 8.04 9.16 8.04 9.16 9.14 7.23 9.14 7.23 7.62 8.97 7.62 8.97 7.33 6.96 7.33 6.96 9.34 7.16 9.34 7.23 9.34 9.47 9.34 9.47 8.04 9.47 7.92 9.47 7.9 7.46 7.9"/><polygon class="cls-2" points="11.67 8.77 11.67 7.8 11.66 7.8 11.66 7.79 10.1 7.8 10.1 8.33 10.1 8.33 10.1 8.48 11.19 8.48 11.19 8.33 10.31 8.33 10.31 7.89 11.4 7.89 11.4 8.63 9.97 8.63 9.97 7.53 11.91 7.53 11.91 9.05 10.17 9.05 10.17 9.34 12.18 9.34 12.18 7.33 11.98 7.33 11.91 7.33 9.66 7.33 9.66 8.63 9.66 8.75 9.66 8.77 11.67 8.77"/><polygon class="cls-2" points="13.1 7.9 13.1 8.87 13.11 8.87 13.11 8.88 14.68 8.87 14.67 8.33 14.67 8.33 14.67 8.19 13.58 8.19 13.58 8.33 14.46 8.33 14.47 8.78 13.37 8.78 13.37 8.04 14.8 8.04 14.8 9.14 12.86 9.14 12.86 7.62 14.6 7.62 14.6 7.33 12.6 7.33 12.6 9.34 12.79 9.34 12.86 9.34 15.11 9.34 15.11 8.04 15.11 7.92 15.11 7.9 13.1 7.9"/><polygon class="cls-2" points="17.43 8.77 17.43 7.8 17.41 7.8 17.41 7.79 15.85 7.8 15.85 8.33 15.85 8.33 15.85 8.48 16.94 8.48 16.94 8.33 16.06 8.33 16.06 7.89 17.16 7.89 17.16 8.63 15.73 8.63 15.73 7.53 17.66 7.53 17.66 9.05 15.92 9.05 15.92 9.34 17.93 9.34 17.93 7.33 17.73 7.33 17.66 7.33 15.42 7.33 15.42 8.63 15.42 8.75 15.42 8.77 17.43 8.77"/><polygon class="cls-2" points="18.77 7.9 18.77 8.87 18.78 8.87 18.78 8.88 20.34 8.87 20.34 8.33 20.34 8.33 20.34 8.19 19.25 8.19 19.25 8.33 20.13 8.33 20.13 8.78 19.03 8.78 19.03 8.04 20.46 8.04 20.46 9.14 18.53 9.14 18.53 7.62 20.27 7.62 20.27 7.33 18.26 7.33 18.26 9.34 18.46 9.34 18.53 9.34 20.77 9.34 20.77 8.04 20.77 7.92 20.77 7.9 18.77 7.9"/><polygon class="cls-2" points="22.98 8.77 22.98 7.8 22.96 7.8 22.96 7.79 21.4 7.8 21.4 8.33 21.4 8.33 21.4 8.48 22.49 8.48 22.49 8.33 21.61 8.33 21.61 7.89 22.71 7.89 22.71 8.63 21.27 8.63 21.27 7.53 23.21 7.53 23.21 9.05 21.47 9.05 21.47 9.34 23.48 9.34 23.48 7.33 23.28 7.33 23.21 7.33 20.96 7.33 20.96 8.63 20.96 8.75 20.96 8.77 22.98 8.77"/><polygon class="cls-2" points="24.31 7.9 24.31 8.87 24.32 8.87 24.32 8.88 25.89 8.87 25.88 8.33 25.88 8.33 25.88 8.19 24.79 8.19 24.79 8.33 25.68 8.33 25.68 8.78 24.58 8.78 24.58 8.04 26.01 8.04 26.01 9.14 24.07 9.14 24.07 7.62 25.82 7.62 25.82 7.33 23.81 7.33 23.81 9.34 24 9.34 24.07 9.34 26.32 9.34 26.32 8.04 26.32 7.92 26.32 7.9 24.31 7.9"/><polygon class="cls-2" points="28.65 8.77 28.65 7.8 28.63 7.8 28.63 7.79 27.07 7.8 27.07 8.33 27.07 8.33 27.07 8.48 28.16 8.48 28.16 8.33 27.28 8.33 27.28 7.89 28.38 7.89 28.38 8.63 26.95 8.63 26.95 7.53 28.88 7.53 28.88 9.05 27.14 9.05 27.14 9.34 29.15 9.34 29.15 7.33 28.95 7.33 28.88 7.33 26.64 7.33 26.64 8.63 26.64 8.75 26.64 8.77 28.65 8.77"/><polygon class="cls-2" points="12.87 5.43 12.87 5.99 12.88 5.99 12.88 5.99 13.79 5.99 13.79 5.68 13.79 5.68 13.79 5.59 13.16 5.59 13.16 5.68 13.67 5.68 13.67 5.93 13.03 5.93 13.03 5.51 13.86 5.51 13.86 6.14 12.74 6.14 12.74 5.26 13.75 5.26 13.75 5.09 12.58 5.09 12.58 6.26 12.7 6.26 12.74 6.26 14.04 6.26 14.04 5.51 14.04 5.44 14.04 5.43 12.87 5.43"/><polygon class="cls-2" points="15.39 5.93 15.39 5.36 15.38 5.36 15.38 5.36 14.47 5.36 14.47 5.68 14.47 5.68 14.47 5.76 15.11 5.76 15.11 5.68 14.59 5.68 14.59 5.42 15.23 5.42 15.23 5.85 14.4 5.85 14.4 5.21 15.52 5.21 15.52 6.09 14.51 6.09 14.51 6.26 15.68 6.26 15.68 5.09 15.56 5.09 15.52 5.09 14.22 5.09 14.22 5.85 14.22 5.92 14.22 5.93 15.39 5.93"/><polygon class="cls-2" points="16.21 5.43 16.21 5.99 16.22 5.99 16.22 5.99 17.13 5.99 17.13 5.68 17.13 5.68 17.13 5.59 16.5 5.59 16.5 5.68 17.01 5.68 17.01 5.93 16.37 5.93 16.37 5.51 17.2 5.51 17.2 6.14 16.08 6.14 16.08 5.26 17.09 5.26 17.09 5.09 15.92 5.09 15.92 6.26 16.04 6.26 16.08 6.26 17.38 6.26 17.38 5.51 17.38 5.44 17.38 5.43 16.21 5.43"/><polygon class="cls-2" points="18.66 5.93 18.66 5.36 18.66 5.36 18.66 5.36 17.75 5.36 17.75 5.68 17.75 5.68 17.75 5.76 18.38 5.76 18.38 5.68 17.87 5.68 17.87 5.42 18.51 5.42 18.51 5.85 17.68 5.85 17.68 5.21 18.8 5.21 18.8 6.09 17.79 6.09 17.79 6.26 18.96 6.26 18.96 5.09 18.84 5.09 18.8 5.09 17.5 5.09 17.5 5.85 17.5 5.92 17.5 5.93 18.66 5.93"/><polygon class="cls-2" points="19.5 5.43 19.5 5.99 19.5 5.99 19.5 5.99 20.41 5.99 20.41 5.68 20.41 5.68 20.41 5.59 19.78 5.59 19.78 5.68 20.29 5.68 20.29 5.93 19.65 5.93 19.65 5.51 20.48 5.51 20.48 6.14 19.36 6.14 19.36 5.26 20.37 5.26 20.37 5.09 19.2 5.09 19.2 6.26 19.32 6.26 19.36 6.26 20.66 6.26 20.66 5.51 20.66 5.44 20.66 5.43 19.5 5.43"/><polygon class="cls-2" points="21.95 5.93 21.95 5.36 21.94 5.36 21.94 5.36 21.03 5.36 21.03 5.68 21.03 5.68 21.03 5.76 21.66 5.76 21.66 5.68 21.15 5.68 21.15 5.42 21.79 5.42 21.79 5.85 20.96 5.85 20.96 5.21 22.08 5.21 22.08 6.09 21.07 6.09 21.07 6.26 22.24 6.26 22.24 5.09 22.12 5.09 22.08 5.09 20.78 5.09 20.78 5.85 20.78 5.92 20.78 5.93 21.95 5.93"/><polygon class="cls-2" points="22.77 5.43 22.77 5.99 22.78 5.99 22.78 5.99 23.69 5.99 23.69 5.68 23.69 5.68 23.69 5.59 23.06 5.59 23.06 5.68 23.57 5.68 23.57 5.93 22.93 5.93 22.93 5.51 23.76 5.51 23.76 6.14 22.64 6.14 22.64 5.26 23.65 5.26 23.65 5.09 22.48 5.09 22.48 6.26 22.6 6.26 22.64 6.26 23.94 6.26 23.94 5.51 23.94 5.44 23.94 5.43 22.77 5.43"/><rect class="cls-1" x="0.32" y="21.9" width="37.2" height="5.19" rx="0.88"/><rect class="cls-3" x="30.48" y="13.38" width="3.6" height="7.58"/><polygon class="cls-4" points="34.52 13.67 30.03 13.67 29.55 12 35 12 34.52 13.67"/><rect class="cls-4" x="30.13" y="20.03" width="4.29" height="1.25"/><rect class="cls-3" x="29.88" y="21.13" width="4.79" height="0.15"/><rect class="cls-3" x="29.88" y="10.62" width="4.79" height="1.17"/><path class="cls-5" d="M35.53,11.39H29v.79h0v.11a.66.66,0,0,0,.63.7.67.67,0,0,0,.64-.7.45.45,0,0,0,0-.11h4s0,.08,0,.11a.64.64,0,1,0,1.28,0s0-.07,0-.11h0Z"/><path class="cls-5" d="M31.05,19.8h0a.23.23,0,0,1-.23-.23V14.19a.23.23,0,0,1,.23-.23h0a.23.23,0,0,1,.23.23v5.38A.23.23,0,0,1,31.05,19.8Z"/><path class="cls-5" d="M33.5,19.8h0a.24.24,0,0,1-.23-.23V14.19A.23.23,0,0,1,33.5,14h0a.23.23,0,0,1,.23.23v5.38A.23.23,0,0,1,33.5,19.8Z"/><path class="cls-5" d="M32.68,19.8h0a.23.23,0,0,1-.23-.23V14.19a.23.23,0,0,1,.23-.23h0a.23.23,0,0,1,.23.23v5.38A.24.24,0,0,1,32.68,19.8Z"/><path class="cls-5" d="M31.83,19.8h0a.23.23,0,0,1-.23-.23V14.19a.23.23,0,0,1,.23-.23h0a.23.23,0,0,1,.23.23v5.38A.23.23,0,0,1,31.83,19.8Z"/><ellipse class="cls-2" cx="29.66" cy="12.19" rx="0.47" ry="0.52"/><path class="cls-2" d="M35.36,12.19a.47.47,0,1,1-.47-.51A.49.49,0,0,1,35.36,12.19Z"/><path class="cls-6" d="M29.89,12.19a.23.23,0,1,1-.45,0,.23.23,0,1,1,.45,0Z"/><path class="cls-6" d="M35.11,12.19a.23.23,0,1,1-.22-.24A.23.23,0,0,1,35.11,12.19Z"/><path class="cls-2" d="M34.67,10.62v.77h.86v.79h0s0,.08,0,.11a.67.67,0,0,1-.64.7l-.17,0-.19.7h-.46V20h.35v1.1h.25v.15H29.88v-.15h.25V20h.35V13.67H30l-.2-.7-.17,0a.66.66,0,0,1-.63-.7v-.11h0v-.79h.85v-.77h4.79m0-.25H29.88a.25.25,0,0,0-.25.25v.52H29a.25.25,0,0,0-.25.25v.9a.92.92,0,0,0,.87,1l.14.5a.25.25,0,0,0,.24.18h.2v5.86h-.1a.26.26,0,0,0-.25.25v.85h0a.25.25,0,0,0-.25.25v.15a.25.25,0,0,0,.25.25h4.79a.25.25,0,0,0,.25-.25v-.15a.25.25,0,0,0-.25-.25h0V20a.25.25,0,0,0-.25-.25h-.1V13.92h.21a.25.25,0,0,0,.24-.18l.14-.5a.92.92,0,0,0,.87-1,.17.17,0,0,0,0-.07.06.06,0,0,0,0,0v-.79a.25.25,0,0,0-.25-.25h-.61v-.52a.25.25,0,0,0-.25-.25Z"/><rect class="cls-2" x="30.48" y="19.88" width="3.6" height="0.16"/><rect class="cls-2" x="30.41" y="13.67" width="3.72" height="0.16"/><rect class="cls-2" x="29.82" y="11.23" width="4.92" height="0.16"/><rect class="cls-2" x="30.1" y="20.97" width="4.35" height="0.16"/><rect class="cls-3" x="20.89" y="13.38" width="3.6" height="7.58"/><polygon class="cls-4" points="24.93 13.67 20.43 13.67 19.96 12 25.41 12 24.93 13.67"/><rect class="cls-4" x="20.54" y="20.03" width="4.29" height="1.25"/><rect class="cls-3" x="20.29" y="21.13" width="4.79" height="0.15"/><rect class="cls-3" x="20.29" y="10.62" width="4.79" height="1.17"/><path class="cls-5" d="M25.93,11.39h-6.5v.79h0s0,.08,0,.11a.64.64,0,1,0,1.28,0s0-.07,0-.11h4a.45.45,0,0,0,0,.11.67.67,0,0,0,.64.7.66.66,0,0,0,.63-.7v-.11h0Z"/><path class="cls-5" d="M21.46,19.8h0a.23.23,0,0,1-.23-.23V14.19a.23.23,0,0,1,.23-.23h0a.23.23,0,0,1,.23.23v5.38A.24.24,0,0,1,21.46,19.8Z"/><path class="cls-5" d="M23.91,19.8h0a.23.23,0,0,1-.23-.23V14.19a.23.23,0,0,1,.23-.23h0a.23.23,0,0,1,.23.23v5.38A.23.23,0,0,1,23.91,19.8Z"/><path class="cls-5" d="M23.09,19.8h0a.23.23,0,0,1-.23-.23V14.19a.23.23,0,0,1,.23-.23h0a.22.22,0,0,1,.22.23v5.38A.23.23,0,0,1,23.09,19.8Z"/><path class="cls-5" d="M22.24,19.8h0a.23.23,0,0,1-.23-.23V14.19a.23.23,0,0,1,.23-.23h0a.23.23,0,0,1,.23.23v5.38A.24.24,0,0,1,22.24,19.8Z"/><ellipse class="cls-2" cx="20.07" cy="12.19" rx="0.47" ry="0.52"/><path class="cls-2" d="M25.77,12.19a.47.47,0,1,1-.47-.51A.49.49,0,0,1,25.77,12.19Z"/><path class="cls-6" d="M20.3,12.19a.23.23,0,1,1-.45,0,.23.23,0,1,1,.45,0Z"/><path class="cls-6" d="M25.52,12.19A.23.23,0,1,1,25.3,12,.23.23,0,0,1,25.52,12.19Z"/><path class="cls-2" d="M25.08,10.62v.77h.85v.79h0v.11a.66.66,0,0,1-.63.7l-.17,0-.2.7h-.45V20h.35v1.1h.25v.15H20.29v-.15h.25V20h.35V13.67h-.45l-.2-.7-.17,0a.67.67,0,0,1-.64-.7s0-.07,0-.11h0v-.79h.86v-.77h4.79m0-.25H20.29a.25.25,0,0,0-.25.25v.52h-.61a.25.25,0,0,0-.25.25v.79s0,0,0,0a.17.17,0,0,0,0,.07.92.92,0,0,0,.87,1l.14.5a.26.26,0,0,0,.25.18h.2v5.86h-.1a.25.25,0,0,0-.25.25v.85h0a.25.25,0,0,0-.25.25v.15a.25.25,0,0,0,.25.25h4.79a.25.25,0,0,0,.25-.25v-.15a.25.25,0,0,0-.25-.25h0V20a.26.26,0,0,0-.25-.25h-.1V13.92h.2a.24.24,0,0,0,.24-.18l.14-.5a.92.92,0,0,0,.87-1v-.9a.25.25,0,0,0-.25-.25h-.6v-.52a.25.25,0,0,0-.25-.25Z"/><rect class="cls-2" x="20.89" y="19.88" width="3.6" height="0.16"/><rect class="cls-2" x="20.82" y="13.67" width="3.72" height="0.16"/><rect class="cls-2" x="20.22" y="11.23" width="4.92" height="0.16"/><rect class="cls-2" x="20.51" y="20.97" width="4.35" height="0.16"/><rect class="cls-3" x="11.29" y="13.38" width="3.6" height="7.58"/><polygon class="cls-4" points="15.34 13.67 10.84 13.67 10.37 12 15.82 12 15.34 13.67"/><rect class="cls-4" x="10.95" y="20.03" width="4.29" height="1.25"/><rect class="cls-3" x="10.7" y="21.13" width="4.79" height="0.15"/><rect class="cls-3" x="10.7" y="10.62" width="4.79" height="1.17"/><path class="cls-5" d="M16.34,11.39H9.84v.79h0a.45.45,0,0,0,0,.11.64.64,0,1,0,1.28,0s0-.07,0-.11h4a.45.45,0,0,0,0,.11.64.64,0,1,0,1.27,0,.45.45,0,0,0,0-.11h0Z"/><path class="cls-5" d="M11.87,19.8h0a.23.23,0,0,1-.23-.23V14.19a.23.23,0,0,1,.23-.23h0a.23.23,0,0,1,.23.23v5.38A.24.24,0,0,1,11.87,19.8Z"/><path class="cls-5" d="M14.32,19.8h0a.23.23,0,0,1-.23-.23V14.19a.23.23,0,0,1,.23-.23h0a.23.23,0,0,1,.23.23v5.38A.24.24,0,0,1,14.32,19.8Z"/><path class="cls-5" d="M13.49,19.8h0a.24.24,0,0,1-.23-.23V14.19a.23.23,0,0,1,.23-.23h0a.23.23,0,0,1,.23.23v5.38A.23.23,0,0,1,13.49,19.8Z"/><path class="cls-5" d="M12.65,19.8h0a.23.23,0,0,1-.23-.23V14.19a.23.23,0,0,1,.23-.23h0a.22.22,0,0,1,.22.23v5.38A.23.23,0,0,1,12.65,19.8Z"/><ellipse class="cls-2" cx="10.48" cy="12.19" rx="0.47" ry="0.52"/><path class="cls-2" d="M16.17,12.19a.49.49,0,0,1-.47.52.52.52,0,0,1,0-1A.49.49,0,0,1,16.17,12.19Z"/><path class="cls-6" d="M10.7,12.19a.22.22,0,1,1-.44,0,.22.22,0,1,1,.44,0Z"/><path class="cls-6" d="M15.93,12.19a.23.23,0,1,1-.45,0,.23.23,0,1,1,.45,0Z"/><path class="cls-2" d="M15.49,10.62v.77h.85v.79h0a.45.45,0,0,1,0,.11.66.66,0,0,1-.63.7l-.17,0-.2.7h-.45V20h.34v1.1h.26v.15H10.7v-.15H11V20h.34V13.67h-.45l-.2-.7-.16,0a.67.67,0,0,1-.64-.7.45.45,0,0,1,0-.11h0v-.79h.86v-.77h4.79m0-.25H10.7a.25.25,0,0,0-.25.25v.52H9.84a.25.25,0,0,0-.25.25v.9a.92.92,0,0,0,.87,1l.14.5a.25.25,0,0,0,.24.18H11v5.86H11a.25.25,0,0,0-.25.25v.85h0a.25.25,0,0,0-.25.25v.15a.25.25,0,0,0,.25.25h4.79a.25.25,0,0,0,.25-.25v-.15a.25.25,0,0,0-.25-.25h0V20a.25.25,0,0,0-.25-.25h-.09V13.92h.2a.25.25,0,0,0,.24-.18l.14-.5a.92.92,0,0,0,.87-1v-.9a.25.25,0,0,0-.25-.25h-.6v-.52a.25.25,0,0,0-.25-.25Z"/><rect class="cls-2" x="11.29" y="19.88" width="3.6" height="0.16"/><rect class="cls-2" x="11.23" y="13.67" width="3.72" height="0.16"/><rect class="cls-2" x="10.63" y="11.23" width="4.92" height="0.16"/><rect class="cls-2" x="10.92" y="20.97" width="4.35" height="0.16"/><rect class="cls-3" x="1.7" y="13.38" width="3.6" height="7.58"/><polygon class="cls-4" points="5.75 13.67 1.25 13.67 0.78 12 6.22 12 5.75 13.67"/><rect class="cls-4" x="1.36" y="20.03" width="4.29" height="1.25"/><rect class="cls-3" x="1.11" y="21.13" width="4.79" height="0.15"/><rect class="cls-3" x="1.11" y="10.62" width="4.79" height="1.17"/><path class="cls-5" d="M6.75,11.39H.25v.79h0a.45.45,0,0,0,0,.11.67.67,0,0,0,.64.7.66.66,0,0,0,.63-.7v-.11h4a.45.45,0,0,0,0,.11.64.64,0,1,0,1.27,0,.45.45,0,0,0,0-.11h0Z"/><path class="cls-5" d="M2.27,19.8h0a.23.23,0,0,1-.22-.23V14.19A.22.22,0,0,1,2.27,14h0a.23.23,0,0,1,.23.23v5.38A.23.23,0,0,1,2.27,19.8Z"/><path class="cls-5" d="M4.73,19.8h0a.23.23,0,0,1-.23-.23V14.19A.23.23,0,0,1,4.73,14h0a.23.23,0,0,1,.23.23v5.38A.24.24,0,0,1,4.73,19.8Z"/><path class="cls-5" d="M3.9,19.8h0a.24.24,0,0,1-.23-.23V14.19A.23.23,0,0,1,3.9,14h0a.23.23,0,0,1,.23.23v5.38A.23.23,0,0,1,3.9,19.8Z"/><path class="cls-5" d="M3.05,19.8h0a.24.24,0,0,1-.23-.23V14.19A.23.23,0,0,1,3.05,14h0a.23.23,0,0,1,.23.23v5.38A.23.23,0,0,1,3.05,19.8Z"/><ellipse class="cls-2" cx="0.89" cy="12.19" rx="0.47" ry="0.52"/><path class="cls-2" d="M6.58,12.19a.47.47,0,1,1-.47-.51A.49.49,0,0,1,6.58,12.19Z"/><path class="cls-6" d="M1.11,12.19a.24.24,0,0,1-.22.25.24.24,0,0,1-.23-.25A.23.23,0,0,1,.89,12,.23.23,0,0,1,1.11,12.19Z"/><path class="cls-6" d="M6.34,12.19a.23.23,0,1,1-.45,0,.23.23,0,1,1,.45,0Z"/><path class="cls-2" d="M5.9,10.62v.77h.85v.79h0a.45.45,0,0,1,0,.11.67.67,0,0,1-.64.7L6,13l-.2.7H5.3V20h.34v1.1H5.9v.15H1.11v-.15h.25V20H1.7V13.67H1.25l-.2-.7L.89,13a.67.67,0,0,1-.64-.7.45.45,0,0,1,0-.11h0v-.79h.86v-.77H5.9m0-.25H1.11a.25.25,0,0,0-.25.25v.52H.25a.25.25,0,0,0-.25.25v.9a.92.92,0,0,0,.87,1l.14.5a.25.25,0,0,0,.24.18h.2v5.86H1.36a.25.25,0,0,0-.25.25v.85h0a.25.25,0,0,0-.25.25v.15a.25.25,0,0,0,.25.25H5.9a.25.25,0,0,0,.25-.25v-.15a.25.25,0,0,0-.25-.25h0V20a.25.25,0,0,0-.25-.25H5.55V13.92h.2A.25.25,0,0,0,6,13.74l.14-.5a.92.92,0,0,0,.87-1v-.9a.25.25,0,0,0-.25-.25h-.6v-.52a.25.25,0,0,0-.25-.25Z"/><rect class="cls-2" x="1.7" y="19.88" width="3.6" height="0.16"/><rect class="cls-2" x="1.64" y="13.67" width="3.72" height="0.16"/><rect class="cls-2" x="1.04" y="11.23" width="4.92" height="0.16"/><rect class="cls-2" x="1.32" y="20.97" width="4.35" height="0.16"/></g></g></svg>