<svg xmlns="http://www.w3.org/2000/svg" viewBox="0 0 34.21 37.25"><defs><style>.cls-1{fill:#ea5b1f;}.cls-2{fill:#f2b236;}.cls-3{fill:#675160;}.cls-4{fill:#9b9b9b;}.cls-5{fill:#512a44;}.cls-6{fill:#d8d7d9;}</style></defs><title>Asset 121</title><g id="Layer_2" data-name="Layer 2"><g id="Layer_1-2" data-name="Layer 1"><path class="cls-1" d="M8,24.58A7.36,7.36,0,0,1,5.1,30.07,7.22,7.22,0,0,1,.77,31.58c-.46,0-.75-.21-.77-.6a.65.65,0,0,1,.72-.69,6,6,0,0,0,5-2.75,5.86,5.86,0,0,0,1-3.16.85.85,0,0,1,.21-.64.62.62,0,0,1,.66-.14.6.6,0,0,1,.41.48A4.17,4.17,0,0,1,8,24.58Z"/><path class="cls-1" d="M26.2,24.58a3.23,3.23,0,0,1,0-.44.64.64,0,0,1,.62-.58.61.61,0,0,1,.63.54,11.45,11.45,0,0,0,.24,1.66,6.12,6.12,0,0,0,5.79,4.53.65.65,0,0,1,.62,1,.62.62,0,0,1-.58.29,7.39,7.39,0,0,1-7-5.06A6.06,6.06,0,0,1,26.2,24.58Z"/><path class="cls-1" d="M24,23.67c-.46-.29-1,0-1,.63a6.11,6.11,0,0,1-4.52,5.78,9,9,0,0,1-1.46.22h-.12a6.12,6.12,0,0,1-5.79-4.53,11.45,11.45,0,0,1-.24-1.66.61.61,0,0,0-.63-.54.64.64,0,0,0-.62.58,3.23,3.23,0,0,0,0,.44A6.35,6.35,0,0,0,10,26.52a7.39,7.39,0,0,0,7,5.06h.35a6.48,6.48,0,0,0,1.95-.37,7.22,7.22,0,0,0,3.58-2.59,7.33,7.33,0,0,0,1.48-4.36A.65.65,0,0,0,24,23.67Z"/><path class="cls-2" d="M10.43,21.79A1.59,1.59,0,1,1,8.84,20.2,1.6,1.6,0,0,1,10.43,21.79Z"/><path class="cls-3" d="M9.5,23.23a1.63,1.63,0,0,1-.66.15,1.58,1.58,0,0,1-.65-.14.53.53,0,0,1,0,.13c0,4.32,0,8.63,0,13a1,1,0,0,0,.45.93H9a1,1,0,0,0,.48-1c0-4.31,0-8.62,0-12.94C9.49,23.31,9.5,23.27,9.5,23.23Z"/><path class="cls-2" d="M26.8,21.79a1.59,1.59,0,1,1-1.59-1.59A1.59,1.59,0,0,1,26.8,21.79Z"/><path class="cls-3" d="M25.88,23.23a1.64,1.64,0,0,1-.67.15,1.5,1.5,0,0,1-.64-.14s0,.08,0,.13q0,6.48,0,13a1,1,0,0,0,.44.93h.39a1,1,0,0,0,.48-1q0-6.46,0-12.94A.53.53,0,0,1,25.88,23.23Z"/><polygon class="cls-4" points="21.81 8.73 17.28 0.65 16.98 0.82 16.68 0.65 12.16 8.73 13.02 9.21 16.98 2.12 20.95 9.21 21.81 8.73"/><path class="cls-2" d="M18.12,1.14A1.14,1.14,0,1,1,17,0,1.14,1.14,0,0,1,18.12,1.14Z"/><rect class="cls-5" x="7.79" y="5.63" width="18.39" height="12.31" rx="3"/><rect class="cls-6" x="12.3" y="4.06" width="9.36" height="15.45" rx="1" transform="translate(28.77 -5.2) rotate(90)"/></g></g></svg>