<svg xmlns="http://www.w3.org/2000/svg" viewBox="0 0 35.76 38.56"><defs><style>.cls-1{fill:#dadbdb;}.cls-2{fill:#b8b7b6;}.cls-3{fill:#512a44;}</style></defs><title>Asset 81</title><g id="Layer_2" data-name="Layer 2"><g id="Layer_1-2" data-name="Layer 1"><path class="cls-1" d="M34.52,34.82H1.12s-1.45.09,0,1.62,5.1,1.38,6.24,1.75,23.14,0,23.14,0S37.2,36,34.52,34.82Z"/><path class="cls-1" d="M28.57,14.65V30.88s-.74,2.66-2.18,3.19-14.58.75-14.58.75-4-.64-4.95-4.05V14.65Z"/><path class="cls-2" d="M7,14.88H11v14a3.61,3.61,0,0,0,3.14,2.8c1.81.37,13.64.19,13.64.19s-1.13,2.58-3.26,2.84-14.37,0-14.37,0S7,32.55,7,29.43"/><path class="cls-3" d="M23.75,35.36H11.89A5.57,5.57,0,0,1,6.33,29.8V14.67a.51.51,0,0,1,.51-.52h22a.51.51,0,0,1,.51.52V29.8A5.57,5.57,0,0,1,23.75,35.36ZM7.36,15.18V29.8a4.54,4.54,0,0,0,4.53,4.53H23.75a4.54,4.54,0,0,0,4.53-4.53V15.18Z"/><path class="cls-3" d="M30.08,38.56H5.56C2.49,38.56,0,36.89,0,34.84a.51.51,0,0,1,.52-.51H35.13a.51.51,0,0,1,.51.51C35.64,36.89,33.15,38.56,30.08,38.56Zm-29-3.2c.42,1.21,2.28,2.16,4.44,2.16H30.08c2.16,0,4-1,4.44-2.16Z"/><path class="cls-3" d="M32.3,29.43H28.8a.51.51,0,0,1-.52-.51V20.59a.51.51,0,0,1,.52-.51h3.5a3.46,3.46,0,0,1,3.46,3.46V26A3.46,3.46,0,0,1,32.3,29.43Zm-3-1h3A2.43,2.43,0,0,0,34.73,26V23.54a2.43,2.43,0,0,0-2.43-2.43h-3Z"/><path class="cls-3" d="M14.58,32.16c-2.73,0-4.18-1.45-4.18-4.18V14.67a.52.52,0,1,1,1,0V28c0,2.18,1,3.15,3.15,3.15a.52.52,0,0,1,0,1Z"/><path class="cls-3" d="M11.19,12.22h0a.52.52,0,0,1-.5-.53,5.26,5.26,0,0,1,1.93-4.34A10.56,10.56,0,0,1,17.38,5.6a15.21,15.21,0,0,0,5.49-1.69A3.62,3.62,0,0,0,24.42.52a.52.52,0,1,1,1,0,4.65,4.65,0,0,1-2,4.24,16.18,16.18,0,0,1-5.89,1.86c-3.73.67-5.78,1.69-5.85,5.09A.53.53,0,0,1,11.19,12.22Z"/><path class="cls-3" d="M15.61,12.22a.51.51,0,0,1-.51-.52c0-2.75,2-3.16,5.08-3.78.9-.19,1.91-.39,3-.68,3.54-.91,4.9-2.74,5-6.74a.51.51,0,0,1,.53-.5.51.51,0,0,1,.5.53,9,9,0,0,1-1.35,5,7.35,7.35,0,0,1-4.46,2.71c-1.15.29-2.17.5-3.08.69-3.25.66-4.27,1-4.26,2.77a.53.53,0,0,1-.52.52Z"/></g></g></svg>