<svg xmlns="http://www.w3.org/2000/svg" viewBox="0 0 37.35 26.69"><defs><style>.cls-1{fill:#f2b236;}.cls-2{fill:#fff;}.cls-3{fill:#3a1c32;}.cls-4{fill:#512a44;}</style></defs><title>Asset 71</title><g id="Layer_2" data-name="Layer 2"><g id="Layer_1-2" data-name="Layer 1"><path class="cls-1" d="M23,12.41a11.47,11.47,0,0,1-5.77,9.9c-.14.08-.29.17-.44.24a11.45,11.45,0,0,1-5.35,1.28h-.53l-.52,0L5.81,25.71a1,1,0,0,1-1.52-.91l.12-3.41A11.49,11.49,0,0,1,11.56.85a11.38,11.38,0,0,1,5,1.2l.46.23.25.15A11.46,11.46,0,0,1,23,12.41Z"/><path class="cls-2" d="M4.57,18.51A.85.85,0,0,0,5.69,19a.83.83,0,0,0,.44-.46C6.54,17.24,7,16,7.5,14.78c.17-.42.34-.85.52-1.27a22.15,22.15,0,0,0,4.22.31c.33.7.7,1.38,1.09,2a27.9,27.9,0,0,0,3.07,4.26.87.87,0,0,0,1.19.14.85.85,0,0,0,.14-1.19c-.25-.29-.5-.58-.74-.88a28.77,28.77,0,0,1-2.07-2.94c-.24-.41-.47-.83-.7-1.26a23.46,23.46,0,0,1-1.71-4.22c-.12-.42-.22-.85-.32-1.27-.13-.63-.24-1.26-.31-1.9,0-.3-.06-.6-.06-.9a.9.9,0,0,0-.18-.59,1,1,0,0,0-.35-.26.8.8,0,0,0-.55,0,.61.61,0,0,0-.29.14l-.15.15h0c-.2.31-.36.64-.54,1-.34.62-.67,1.23-1,1.86-.46.89-.9,1.8-1.32,2.71L7,11.58l-.3-.07-.09,0a.83.83,0,0,0-.44-.06L6,11.49a.9.9,0,0,0-.44.46A.86.86,0,0,0,6,13.06l.34.09c-.13.3-.25.6-.37.9q-.76,1.88-1.41,3.81A1,1,0,0,0,4.57,18.51Zm4.16-6.6c.4-.87.81-1.73,1.24-2.59.15-.31.31-.62.47-.93,0,.15.06.3.1.46a23.78,23.78,0,0,0,1,3.28h0q-.39,0-.78,0A19.73,19.73,0,0,1,8.73,11.91Z"/><path class="cls-3" d="M31.89,22s-12.23-1.43-14.54.27c-3.47-2.18-5.14-5.68-5.11-10.07A12.23,12.23,0,0,1,24.55,0a12.11,12.11,0,0,1,6.23,1.75A12.23,12.23,0,0,1,31.89,22Z"/><path class="cls-4" d="M32.54,22l.07,3.63a1.07,1.07,0,0,1-1.62.94l-4.83-2.11a10.39,10.39,0,0,1-1.12,0,12.08,12.08,0,0,1-6.41-1.86A12.23,12.23,0,1,1,32.54,22Z"/><path class="cls-2" d="M26.86,17.16a16.06,16.06,0,0,0,2,.82.75.75,0,0,0,.57-.07.77.77,0,0,0,.33-.44.74.74,0,0,0-.51-.9c-.3-.1-.6-.22-.9-.34s-.68-.31-1-.48a15,15,0,0,0,1.17-2.21,16.45,16.45,0,0,0,.91-2.81,15.94,15.94,0,0,0,.3-1.92l1.83-.49c.44-.12.89-.23,1.33-.36h0a.74.74,0,0,0,.44-.34.72.72,0,0,0,.07-.56.75.75,0,0,0-.9-.51l-.8.22-2.09.56c-1,.25-1.94.5-2.92.73-.61.14-1.22.29-1.84.42L24.52,7l-.05-.26a.74.74,0,0,0-.34-.44.72.72,0,0,0-.56-.07.78.78,0,0,0-.44.33.87.87,0,0,0-.07.57l.35,1.69h0c-1,.21-2.11.41-3.17.57l-.26,0c-.58.08-1.17.14-1.76.17h-.44a.76.76,0,0,0-.52.21A.74.74,0,0,0,17.77,11a21.58,21.58,0,0,0,3.3-.33c1.27-.2,2.53-.45,3.79-.73s2.22-.5,3.32-.77A15.33,15.33,0,0,1,27.51,12c-.1.28-.21.55-.32.83A14.74,14.74,0,0,1,26.05,15c-.25-.17-.5-.34-.74-.53a14.78,14.78,0,0,1-2.1-2l-.42-.52-.06-.08a.77.77,0,0,0-.44-.33.73.73,0,0,0-.56.07.75.75,0,0,0-.34.44.69.69,0,0,0,.08.56A15,15,0,0,0,23.66,15a13.62,13.62,0,0,0,1.53,1.19A14.34,14.34,0,0,1,23.42,18l-.49.4c-.36.28-.74.54-1.13.79a.75.75,0,0,0-.34.44.74.74,0,0,0,.08.56.71.71,0,0,0,1,.26,15.89,15.89,0,0,0,2-1.52,15.64,15.64,0,0,0,1.86-2Z"/></g></g></svg>